<?xml version="1.0" encoding="UTF-8"?>
<svg id="Layer_2" data-name="Layer 2" xmlns="http://www.w3.org/2000/svg" viewBox="0 0 124.48 155.64">
  <defs>
    <style>
      .cls-1 {
        fill: #ccc;
      }

      .cls-2 {
        fill: none;
        stroke: #ccc;
        stroke-miterlimit: 10;
        stroke-width: 3.6px;
      }
    </style>
  </defs>
  <g id="Layer_1-2" data-name="Layer 1">
    <g>
      <g>
        <path class="cls-2" d="M103.25,44.27c.63,9.86-8.63,21.73-20.84,21.73-7.19,0-13.46,2.84-17.81,9.11-6.94,10.92-8.12-9.95-26.63-9-10.88-.4-19.73-9.34-20.08-20.61-1.85-19.92,27.04-30.83,38.6-13.34,7.32,11.47,9.28-13.26,29.58-8.36,10.14,1.65,17.2,10.16,17.16,20.47-42.22,0-84.9.5-84.9.5"/>
        <path class="cls-2" d="M82.04,65.5c-.5-7.43-3.67-13.2-9.94-17.49-7.78-4.56,8.3-10.11,8.92-18.4,3.38-11.28-2.77-24.84-16.79-27.27-21.75-5.09-35.03,27.26-15.61,38.84,9.38,6.28-9.5,8.2-9.55,23.95"/>
        <path class="cls-2" d="M60.56,2.92v90.11c-2.75,5.08-5.61,10.11-10.54,13.2,3.69,7.94,17.39,7.94,21.09,0-4.5-2.82-8.25-9-10.78-13.61"/>
        <path class="cls-2" d="M71.3,25.88c-4.13-7.93-17.34-7.93-21.48,0"/>
        <path class="cls-2" d="M71.3,68.47c-4.84-7.59-16.64-7.59-21.48,0"/>
        <path class="cls-2" d="M40.94,34.4c-7.73,5.66-6.32,16.79.37,21.11"/>
        <path class="cls-2" d="M80.19,34.4c6.98,4.85,6.98,15.89,0,20.74"/>
      </g>
      <path class="cls-1" d="M7.61,135.36c-.09.08-.72.34-.72.42,3.26,1.05,3.79,5.5.57,7.02-1.66.47-6.08,1.66-7.23-.03-.2-3.74.6-8.59,0-12.23-.05-.31-.52-.81.12-1.1,3.55-.9,11.63.96,7.27,5.92ZM3.25,130.82c-.65.55-.26,3.51-.27,4.17,3.39,1.32,4.45-4.06.27-4.17ZM2.95,136.98v4.7c0,.3.8.3,1.03.26,4.66-.62,3.07-6.16-1.03-4.96Z"/>
      <path class="cls-1" d="M43.87,143.37c.04-3.25.49-8.97.06-12.4-.07-.77-.72-1.48.48-1.58,1.65-.15,5.39-.12,6.82.62,3.08,1.34,2.59,5.88-.54,6.76.22,1.74,5.04,5.4,3.78,6.61-3.49.47-4.72-3.92-6.71-6.09-1.51-2.28,1.6-.84,2.43-2.67,1-1.66-.16-3.3-1.88-3.67-.61-.13-1.79-.45-1.77.46.34,3.76-.61,8.21.27,11.75-.43.48-2.51.21-2.95.22Z"/>
      <path class="cls-1" d="M105.71,129.39c4.65.45,5.9,5.56,1.69,7.48.12,1.17,6.15,7,3,6.51-2.09.17-3.49-2.49-4.48-4.04-.83-1.22-3.62-3.74-.46-3.64,1.94-.54,2.09-3.39.52-4.5-.64-.24-2.2-.53-2.84-.33-.66,3.44.21,7.85-.05,11.42.45.02.3,1.09.11,1.09h-2.62c-.6,0-.08-1.03-.05-1.36-.03-4.01,0-8.99.05-12.63,1.61,0,3.58-.14,5.14,0Z"/>
      <path class="cls-1" d="M83.31,129.39c7.66,1.04,5.53,9.26-1.42,8.85-.34.84.27,4.3-.11,5.14,0,0-2.62,0-2.62,0-.27-3.84.43-9.38-.37-13.4.65-1.26,3.26-.41,4.52-.58ZM81.83,131.08v5.35c4.57,1.23,4.72-6.45,0-5.35Z"/>
      <path class="cls-1" d="M36.38,135.01c0,.06.11.17.13.26,1.59.23,5.43-.94,3.84,1.87-1.32-.14-2.65-.3-3.97-.1l.13,4.67c1.59.36,3.89.29,5.29-.62.7-.07.74,2.43-.24,2.38-2.48-.24-5.44.53-7.75-.32,0,0-.05-12.19-.05-12.19-.07-.73-.76-1.26.37-1.58,0,0,7.1,0,7.1,0,.71.05.58,1.86.37,2.22-.38.63-.85-.39-1.24-.47-1.33.13-2.76-.4-3.99.16.13,1.12-.18,2.65,0,3.71Z"/>
      <path class="cls-1" d="M13.99,131.14v4.04c1.18.42,3.04-.25,4.04.16,0,0,0,1.64,0,1.64,0,.54-.52.1-.72.06-1.09-.2-2.23-.12-3.33,0,.1.17-.22,4.84.19,4.81,1.58.3,3.79.06,5.21-.66.16.01.44.25.47.4-.03.55.19,1.86-.71,1.87-12.03.33-6.95-.02-7.89-12.71-1.62-2.6,6.1-1.16,7.26-1.36,1.1-.08.61,1.67.71,2.24-.44.58-.83-.39-1.26-.49-1.31-.06-2.67-.07-3.99,0Z"/>
      <path class="cls-1" d="M94.98,133.51c.07,1.76,6.22,10.72,2.54,9.86-1.95-.05-2.14-2.5-2.97-3.8h-4.5c-.24.86-.93,1.77-1.19,2.58-.15.46.1,1.13-.63,1.23-3.61,1,2.42-8.02,2.55-9.71,2.14-5.57,1.97-6.1,4.2-.16ZM90.68,138.02h3.28c-.28-1.37-1.16-2.58-1.58-3.93-.69,1.26-1.16,2.6-1.69,3.93Z"/>
      <path class="cls-1" d="M26.88,138.68c1.1-3.09,2.57-6.5,3.88-9.3,2.4-.4.9,1.78.34,2.97-1.16,1.26-4.33,14.33-5.71,10.5-.4-1.85-6.59-13.54-4.56-13.45,3.8.12,3.88,6.38,5.68,9.05l.37.23Z"/>
      <path class="cls-1" d="M64.5,130c1.46,1.41,2.45,3.45,3.62,5.06l2.94-4.16c.3-.55.2-1.42.99-1.53,4.63-.53-4.83,5.88-3.01,12.3,1.11,2.5-.99,1.65-2.56,1.69-.6-.11-.09-.9-.05-1.25.08-.62.1-4.19-.03-4.68-.62-1.85-8.66-10.64-1.9-7.44Z"/>
      <path class="cls-1" d="M58.29,129.39c.81,3.47-.02,8.24.29,12.17,1.46.69,3.43-.08,4.93.05.9-1.12,1.43.19,1.16,1.16.63,1.22-9.68,1.29-8.85-.1-.15-4.15-.02-9.35.06-13.28.62,0,1.88-.11,2.4,0Z"/>
      <path class="cls-1" d="M122.75,143.37c-3.12-.99-4.73-4.53-7.15-6.63l-.12-.42c2.27-2.19,4.37-5.07,6.72-6.94,4.03-.31-3.6,5.12-3.88,6.39.89,1.38,9.84,8.79,4.43,7.6Z"/>
      <path class="cls-1" d="M113.02,129.39c.38.18,2.84-.43,2.69.49-.53,3.66-.5,8.42-.34,12.13.02.16.68,1.36.17,1.36h-2.62c-.6-3.51.45-8.65-.05-12.52-.07-.66-.75-1.05.16-1.47Z"/>
      <path class="cls-1" d="M59.17,149.21c3.42,2.79-.16,7.28-3.95,6.3-1.72-.59-.24-4.76-.71-6.4.23-1.29,3.92-.39,4.66.1ZM58.31,150.18c-1.5-1.1-2.78-.98-2.26,1.23-.02.53-.38,3.01.17,3.2,2.23.25,3.58-2.85,2.08-4.43Z"/>
      <path class="cls-1" d="M41.27,149.3c.84.97.28,2.32-.71,2.97.03.58,2.01,2.7,1.72,3.11-1.65.78-2.96-2.15-3.57-3.14-.2-.82.63-.43,1.02-.89.78-.91-.23-2.31-1.28-1.71-.81.85,1.44,7.37-1.74,5.63.66-4.05-1.88-9.06,4.55-5.97Z"/>
      <path class="cls-1" d="M71.02,148.78c2.03-1.9.59,6.23.86,6.6-1.91-.36-3-3.92-4.79-4.46-.21.55.75,6.23-1.21,4.19.17-7.44-.63-8.82,5.14-2.44v-3.88Z"/>
      <path class="cls-1" d="M44.14,151.35c.56.36,2.04-.43,2.09.49.06,1.05-1.49.38-2.09.71v1.97c.62.49,2.25-.27,2.56-.2,1.54,1.8-3.15,1.16-3.73,1.1-.55.07-.14-6.42-.3-6.59.58-.68,3-.32,3.69-.19.85.42.25,1.37-.52.96-1.98-.14-1.71.04-1.69,1.75Z"/>
      <path class="cls-1" d="M61.57,155.5c-1.09-1.1-.25-3.31-.4-4.75,0-.5-.36-1.79.06-2.1.27-.19,3.26-.22,3.57-.09.63.44.27,1.7-.38,1.04-1.85-.15-1.76-.08-1.91,1.63.52.4,1.57-.01,1.9.23.83,1.38-.97.9-1.63.97-.55,1.21-.37,2.57,1.42,2.18.91-.1,1.41-.97,1.15.87-1.08-.15-2.77.21-3.77,0Z"/>
      <path class="cls-1" d="M80.85,154.35c.07.21,1.32.31,1.58.27s.98-.49,1.14-.03c.7,1.49-3.81,1.03-4.14.65l-.2-6.32c.35-.59,4.35-.87,4.12.39-.11.6-.4.3-.58.3h-1.91v1.75c.5.35,2-.38,1.98.49,0,.95-1.24.51-1.81.6-.29,0-.12,1.76-.16,1.91Z"/>
      <path class="cls-1" d="M73.68,154.48c-4.67-5.88,6.6-7.59,4.58-4.56-5.25-2.81-5.2,7.11-.1,4.18,1.86,2.14-3.8,1.73-4.48.39Z"/>
      <path class="cls-1" d="M85.48,150.65c4.01,1.9,2.84,6.06-1.44,4.61-.21-1.69.69-.44,1.87-.66,2.28-1.86-3.07-2.28-2-4.85.37-1.15,2.12-1.49,3.16-1.18.42.13.71.47.51.91-.29.64-.77-.06-1.21-.11-.8-.08-1.6.49-.88,1.27Z"/>
      <path class="cls-1" d="M50.11,151.49c2.76,1.81.51,4.93-2.26,3.95-.76-.33-.27-1.32.22-1.09.52.61,2.01.32,1.87-.66-.1-.98-2.44-1.39-2.63-2.94-.73-2.16,3.44-3.27,3.73-1.31-.08.79-1.01-.03-1.49-.05-1.75.14-.28,1.81.57,2.11Z"/>
      <path class="cls-1" d="M52.03,155.36c-.24-.24.17-5.57-.1-6.35.04-.69,1.73-.55,1.72-.02-.61,1.32-.18,3.81-.22,5.36.45,1.14-.5,1.41-1.39,1.01Z"/>
    </g>
  </g>
</svg>