<?xml version="1.0" encoding="UTF-8"?>
<svg id="Layer_2" data-name="Layer 2" xmlns="http://www.w3.org/2000/svg" viewBox="0 0 281.02 90.24">
  <defs>
    <style>
      .cls-1 {
        fill: #ccc;
      }

      .cls-2 {
        fill: none;
        stroke: #ccc;
        stroke-miterlimit: 10;
        stroke-width: 4.43px;
      }
    </style>
  </defs>
  <g id="Layer_1-2" data-name="Layer 1">
    <g>
      <path class="cls-2" d="M3.93,32.19S-8.55,2.21,33.91,2.21s29.04,29.98,29.04,29.98"/>
      <path class="cls-2" d="M63.41,58.55s11.97,30.19-30.49,29.46c-42.46-.72-28.52-30.47-28.52-30.47"/>
      <path class="cls-2" d="M41.56,24.85c0,4.22-3.42,7.65-7.65,7.65s-7.65-3.42-7.65-7.65,3.42-7.65,7.65-7.65,7.65,3.42,7.65,7.65Z"/>
      <path class="cls-2" d="M28.79,55.03c-5.91,3.08-6.33,17.58,0,21.05,5.66,3.11,16.63-2.68,17.06-9.56.46-7.4-11.38-14.46-17.06-11.49"/>
      <path class="cls-2" d="M27.86,55.88s-13.3,5.54-13.3-13.3,13.3-12.88,13.3-12.88"/>
      <path class="cls-2" d="M39.55,29.49s13.39-5.31,13.07,13.53c-.32,18.83-14.4,13.06-14.4,13.06"/>
      <g>
        <path class="cls-1" d="M84.77,68.79V24.69h25.58c2.18,0,4.17.48,5.95,1.45,1.79.97,3.22,2.31,4.32,4.03,1.09,1.72,1.64,3.76,1.64,6.11,0,1.39-.28,2.71-.85,3.97s-1.31,2.37-2.24,3.34c-.92.97-2,1.74-3.21,2.33,1.43.55,2.7,1.38,3.81,2.49,1.11,1.11,1.99,2.38,2.65,3.81s.98,2.98.98,4.66c0,2.35-.56,4.43-1.67,6.24-1.11,1.81-2.59,3.2-4.44,4.19-1.85.99-3.93,1.48-6.24,1.48h-26.27ZM95.35,42.33h11.91c.8,0,1.53-.21,2.21-.63.67-.42,1.2-.97,1.57-1.64.38-.67.57-1.39.57-2.14,0-.84-.19-1.58-.57-2.24-.38-.65-.89-1.17-1.54-1.54-.65-.38-1.4-.57-2.24-.57h-11.91v8.76ZM95.35,60.03h12.98c.92,0,1.72-.21,2.39-.63.67-.42,1.21-.99,1.61-1.7.4-.71.6-1.49.6-2.33s-.2-1.68-.6-2.39c-.4-.71-.94-1.27-1.61-1.67-.67-.4-1.47-.6-2.39-.6h-12.98v9.32Z"/>
        <path class="cls-1" d="M145.31,69.54c-3.32,0-6.3-.74-8.95-2.21-2.65-1.47-4.75-3.49-6.3-6.05s-2.33-5.46-2.33-8.69.78-6.06,2.33-8.6,3.66-4.55,6.33-6.02c2.67-1.47,5.64-2.21,8.92-2.21s6.29.74,8.91,2.21c2.62,1.47,4.7,3.48,6.24,6.02s2.3,5.43,2.3,8.66-.77,6.07-2.3,8.63-3.61,4.58-6.24,6.05-5.6,2.21-8.91,2.21ZM145.25,61.04c1.55,0,2.91-.38,4.06-1.13s2.05-1.76,2.68-3.02c.63-1.26.95-2.69.95-4.28s-.32-2.96-.95-4.22c-.63-1.26-1.52-2.27-2.68-3.02-1.16-.76-2.51-1.13-4.06-1.13s-2.85.38-4,1.13c-1.16.76-2.05,1.76-2.68,3.02-.63,1.26-.95,2.67-.95,4.22s.31,3.02.95,4.28c.63,1.26,1.52,2.27,2.68,3.02s2.49,1.13,4,1.13Z"/>
        <path class="cls-1" d="M185.63,69.54c-3.49,0-6.53-.71-9.13-2.14-2.6-1.43-4.63-3.45-6.08-6.08s-2.17-5.72-2.17-9.29v-29.23h9.83v17.2h.19c.63-.88,1.42-1.65,2.36-2.3.95-.65,2-1.14,3.15-1.48,1.16-.34,2.38-.5,3.69-.5,3.02,0,5.7.7,8.03,2.11,2.33,1.41,4.16,3.32,5.48,5.73,1.32,2.42,1.99,5.24,1.99,8.47,0,2.6-.4,4.97-1.2,7.09-.8,2.12-1.93,3.97-3.4,5.54-1.47,1.58-3.28,2.78-5.42,3.62-2.14.84-4.58,1.26-7.31,1.26ZM185.63,61.16c1.51,0,2.82-.38,3.94-1.13s1.96-1.77,2.55-3.06c.59-1.28.88-2.72.88-4.32s-.3-3.01-.91-4.25c-.61-1.24-1.46-2.24-2.55-2.99-1.09-.76-2.39-1.13-3.91-1.13s-2.83.38-3.94,1.13c-1.11.76-1.97,1.75-2.58,2.99-.61,1.24-.91,2.66-.91,4.25s.3,3.04.91,4.32c.61,1.28,1.47,2.3,2.58,3.06,1.11.76,2.43,1.13,3.94,1.13Z"/>
        <path class="cls-1" d="M225.83,69.54c-3.49,0-6.53-.71-9.13-2.14-2.6-1.43-4.63-3.45-6.08-6.08s-2.17-5.72-2.17-9.29v-29.23h9.83v17.2h.19c.63-.88,1.42-1.65,2.36-2.3.95-.65,2-1.14,3.15-1.48,1.16-.34,2.38-.5,3.69-.5,3.02,0,5.7.7,8.03,2.11,2.33,1.41,4.16,3.32,5.48,5.73,1.32,2.42,1.99,5.24,1.99,8.47,0,2.6-.4,4.97-1.2,7.09-.8,2.12-1.93,3.97-3.4,5.54-1.47,1.58-3.28,2.78-5.42,3.62-2.14.84-4.58,1.26-7.31,1.26ZM225.83,61.16c1.51,0,2.82-.38,3.94-1.13s1.96-1.77,2.55-3.06c.59-1.28.88-2.72.88-4.32s-.3-3.01-.91-4.25c-.61-1.24-1.46-2.24-2.55-2.99-1.09-.76-2.39-1.13-3.91-1.13s-2.83.38-3.94,1.13c-1.11.76-1.97,1.75-2.58,2.99-.61,1.24-.91,2.66-.91,4.25s.3,3.04.91,4.32c.61,1.28,1.47,2.3,2.58,3.06,1.11.76,2.43,1.13,3.94,1.13Z"/>
        <path class="cls-1" d="M260.16,81.58v-12.6c-2.39-.54-4.42-1.49-6.08-2.83-1.66-1.34-2.93-2.97-3.81-4.88-.88-1.91-1.32-3.98-1.32-6.21v-18.59h9.77v18.33c0,1.09.27,2.12.82,3.09.55.97,1.29,1.73,2.24,2.3.94.57,2.03.85,3.24.85s2.24-.29,3.18-.88c.95-.59,1.69-1.35,2.24-2.3.55-.95.82-1.96.82-3.06v-18.33h9.77v18.59c0,2.18-.44,4.23-1.32,6.14s-2.14,3.54-3.78,4.88c-1.64,1.34-3.63,2.29-5.99,2.83v12.66h-9.76Z"/>
      </g>
    </g>
  </g>
</svg>