<?xml version="1.0" encoding="UTF-8"?>
<svg id="Layer_2" data-name="Layer 2" xmlns="http://www.w3.org/2000/svg" viewBox="0 0 247.51 103.7">
  <defs>
    <style>
      .cls-1 {
        font-family: Poppins-Bold, Poppins;
        font-size: 17.04px;
        font-weight: 700;
      }

      .cls-1, .cls-2 {
        fill: #ccc;
      }
    </style>
  </defs>
  <g id="Layer_1-2" data-name="Layer 1">
    <g id="qdhiFQ.tif">
      <g>
        <path class="cls-2" d="M0,1.59C.54.94.86.4,1.77.26c1.91-.3,10.49-.3,12.4,0,2.12.34,1.84,3.2,1.74,4.81l-3.48.57c-.1-.31.13-2.69,0-2.69H3.51v8.89h8.92v-2.97s3.53.71,3.53.71c-.04,2.49.52,4.78-2.61,5.2-1.66.22-11.17.2-12.25-.4-.49-.27-.69-.85-1.1-1.2V1.59Z"/>
        <path class="cls-2" d="M124.84,59.79c.94.63,1.55,1.6,2.56,2.16,7.22,4.07,30.69,4.15,36.49-2.43,3.19-3.62,1.47-8.18-2.66-10.02-11.03-4.91-33.66,5.57-44.83,9.28-16.83,5.59-37.89,10.4-54.53,1.68-3.07-1.61-6.67-4.22-8.1-7.42,5.12,5.1,13.83,5.19,20.68,4.86,19.07-.93,34.21-7.92,52-12.81,10.94-3.01,26.84-6.15,36.21,1.88,5.61,4.81,6.72,9.22,2.27,15.47-6.22,8.73-21.97,9.25-31.18,5.81-3.38-1.26-8.45-4.68-8.92-8.48Z"/>
        <path class="cls-2" d="M177.53,53.06c-1.18-1.31-1.66-3.27-2.56-4.86-10.68-18.79-40.66-10.91-57.48-6.39-9.96,2.68-19.67,6.27-29.61,9.01-9.89,2.73-17.12,4.36-27.35,1.56-5.91-1.62-11.73-4.31-12.97-10.91l3.11,3.49c5.44,4.32,16.38,1.39,22.56-.4,21.37-6.19,39.58-14.27,62.54-15.24,16.78-.71,38.49,4.58,41.76,23.72Z"/>
        <path class="cls-2" d="M154.56,12.5c-.25,1.53-1.39,2.13-2.84,2.29-2.5.28-9.7.32-12.14-.03-2.02-.28-2.45-1.8-2.6-3.6s-.22-8.39.49-9.77c.4-.78.95-1.06,1.81-1.16,2.44-.28,10.91-.35,13.23.02,1.79.28,2.22,2.19,2.04,3.75l-3.51.54c-.06-.23.08-1.62,0-1.62h-10.27v8.89h10.27v-2.96h-5.27c-.59,0-.59-2.69,0-2.69h8.78c-.22,1.93.3,4.49,0,6.33Z"/>
        <path class="cls-2" d="M207.93,2.66c2.49.44,2.67,4.89.41,5.79,1.78.7,2.18,4.09,1.09,5.4-.27.32-1.72.93-2.04.93h-11.21V2.66h11.75ZM206.31,4.82c-.92-.28-5.75,0-7.16,0v2.69h6.89c1.07,0,.83-2.52.27-2.69ZM206.71,9.67c-.49-.31-6.43.24-7.57,0v2.69h7.16c.83,0,.76-2.47.41-2.69Z"/>
        <path class="cls-2" d="M190.69,3.28c.4.4.58,1.36.63,1.93.16,1.77.19,5.56,0,7.3s-1.13,2.15-2.83,2.3c-2.61.22-7.7.25-10.28,0-.43-.04-1.71-.35-1.96-.6-.81-.81-.75-7.54-.62-8.98.15-1.59.65-2.37,2.31-2.55,2.53-.28,8.25-.24,10.83,0,.57.05,1.54.23,1.94.63ZM188.07,5.09h-9.19v7.28h9.19v-7.28Z"/>
        <path class="cls-2" d="M36.41,14.18c-.38.35-1.66.57-2.22.62-2.52.21-7.81.27-10.28-.01-1.04-.12-1.91-.43-2.32-1.46-.43-1.09-.41-6.72-.25-8.1.21-1.88,1.03-2.4,2.83-2.57,2.44-.23,8.17-.28,10.56,0,1.53.18,2.13.8,2.29,2.3.19,1.8.18,5.47.02,7.29-.05.53-.25,1.59-.62,1.94ZM33.78,5.09h-9.19v7.28h9.19v-7.28Z"/>
        <path class="cls-2" d="M80.18,2.73c2.08-.37,8.76-.28,11.03-.07,1,.09,2.1.26,2.43,1.34.31,1,.28,7.48.13,8.78-.12,1.02-.6,1.62-1.62,1.89-1.54.4-9.65.33-11.49.13-.9-.1-1.86-.38-2.22-1.28-.56-1.37-.58-8.72.18-9.92.29-.45,1.05-.77,1.57-.86ZM90.79,5.09h-9.46v7.28h9.46v-7.28Z"/>
        <path class="cls-2" d="M129.84,2.66c2.71.48,2.59,5.66,1.03,7.23l-3.32.59c1.94,1.2,3.83,2.7,5.4,4.32h-4.19c-.33,0-4.27-3.97-5-4.44l-2.7-.14v4.58h-2.97V2.66h11.75ZM121.05,8.05h7.16c.77,0,1.34-3.23-.54-3.23h-6.62v3.23Z"/>
        <path class="cls-2" d="M54.04,10.48V2.66h2.7v12.13l-1.74-.02c-3.68-2.19-6.77-5.45-10.42-7.8v7.81h-2.7V2.66c.85.02,1.77-.17,2.53.3l9.63,7.51Z"/>
        <path class="cls-2" d="M101.87,12.37h7.84V2.66h3.24v10.37c0,.07-.59,1.14-.73,1.23-.52.37-1.71.49-2.37.53-2.27.16-6.72.24-8.9-.03-.87-.11-2.32-.74-2.32-1.73V2.66c.58.05,3.24-.24,3.24.4v9.3Z"/>
        <path class="cls-2" d="M222.87,2.72l7.08,12.07c-.73-.15-3.02.23-3.47-.04-.16-.1-.86-2.36-1.57-2.61-.43-.15-7.29-.2-7.61,0-.13.08-1.02,2.29-1.39,2.52-.62.38-2.2,0-2.98.13,1.9-4.06,4.54-7.81,6.74-11.74.67-.69,2.27-.37,3.2-.33ZM223.73,9.67l-2.57-4.31-2.3,4.31h4.86Z"/>
        <path class="cls-2" d="M74.85,2.66v2.43h-5.67v9.7c-.58-.05-3.24.24-3.24-.4V5.09h-5.67v-2.43h14.59Z"/>
        <path class="cls-2" d="M235.89,2.66v9.7h9.46v2.43h-12.29s-.41-.38-.41-.4V3.07c0-.64,2.67-.35,3.24-.4Z"/>
        <polygon class="cls-2" points="163.48 2.66 163.48 12.37 172.93 12.37 172.93 14.79 160.5 14.79 160.5 2.66 163.48 2.66"/>
        <path class="cls-2" d="M247.51,6.17l-1.22-1.07-.14,1.08c-.75.84-1.94-4.1,1.24-2.44l.11,2.44ZM246.97,4.01h-.81v.54h.81v-.54Z"/>
      </g>
    </g>
    <text class="cls-1" transform="translate(17.07 93.37)"><tspan x="0" y="0">New Kosova power plant </tspan></text>
  </g>
</svg>