<?xml version="1.0" encoding="UTF-8"?>
<svg id="Layer_2" data-name="Layer 2" xmlns="http://www.w3.org/2000/svg" viewBox="0 0 247.51 97.91">
  <defs>
    <style>
      .cls-1 {
        fill: #ccc;
      }
    </style>
  </defs>
  <g id="Layer_1-2" data-name="Layer 1">
    <g>
      <g>
        <path class="cls-1" d="M0,1.59C.54.94.86.4,1.77.26c1.91-.3,10.49-.3,12.4,0,2.12.34,1.84,3.2,1.74,4.81l-3.48.57c-.1-.31.13-2.69,0-2.69H3.51v8.89h8.92v-2.97s3.53.71,3.53.71c-.04,2.49.52,4.78-2.61,5.2-1.66.22-11.17.2-12.25-.4-.49-.27-.69-.85-1.1-1.2V1.59Z"/>
        <path class="cls-1" d="M124.84,59.79c.94.63,1.55,1.6,2.56,2.16,7.22,4.07,30.69,4.15,36.49-2.43,3.19-3.62,1.47-8.18-2.66-10.02-11.03-4.91-33.66,5.57-44.83,9.28-16.83,5.59-37.89,10.4-54.53,1.68-3.07-1.61-6.67-4.22-8.1-7.42,5.12,5.1,13.83,5.19,20.68,4.86,19.07-.93,34.21-7.92,52-12.81,10.94-3.01,26.84-6.15,36.21,1.88,5.61,4.81,6.72,9.22,2.27,15.47-6.22,8.73-21.97,9.25-31.18,5.81-3.38-1.26-8.45-4.68-8.92-8.48Z"/>
        <path class="cls-1" d="M177.53,53.06c-1.18-1.31-1.66-3.27-2.56-4.86-10.68-18.79-40.66-10.91-57.48-6.39-9.96,2.68-19.67,6.27-29.61,9.01-9.89,2.73-17.12,4.36-27.35,1.56-5.91-1.62-11.73-4.31-12.97-10.91l3.11,3.49c5.44,4.32,16.38,1.39,22.56-.4,21.37-6.19,39.58-14.27,62.54-15.24,16.78-.71,38.49,4.58,41.76,23.72Z"/>
        <path class="cls-1" d="M154.56,12.5c-.25,1.53-1.39,2.13-2.84,2.29-2.5.28-9.7.32-12.14-.03-2.02-.28-2.45-1.8-2.6-3.6s-.22-8.39.49-9.77c.4-.78.95-1.06,1.81-1.16,2.44-.28,10.91-.35,13.23.02,1.79.28,2.22,2.19,2.04,3.75l-3.51.54c-.06-.23.08-1.62,0-1.62h-10.27v8.89h10.27v-2.96h-5.27c-.59,0-.59-2.69,0-2.69h8.78c-.22,1.93.3,4.49,0,6.33Z"/>
        <path class="cls-1" d="M207.93,2.66c2.49.44,2.67,4.89.41,5.79,1.78.7,2.18,4.09,1.09,5.4-.27.32-1.72.93-2.04.93h-11.21V2.66h11.75ZM206.31,4.82c-.92-.28-5.75,0-7.16,0v2.69h6.89c1.07,0,.83-2.52.27-2.69ZM206.71,9.67c-.49-.31-6.43.24-7.57,0v2.69h7.16c.83,0,.76-2.47.41-2.69Z"/>
        <path class="cls-1" d="M190.69,3.28c.4.4.58,1.36.63,1.93.16,1.77.19,5.56,0,7.3s-1.13,2.15-2.83,2.3c-2.61.22-7.7.25-10.28,0-.43-.04-1.71-.35-1.96-.6-.81-.81-.75-7.54-.62-8.98.15-1.59.65-2.37,2.31-2.55,2.53-.28,8.25-.24,10.83,0,.57.05,1.54.23,1.94.63ZM188.07,5.09h-9.19v7.28h9.19v-7.28Z"/>
        <path class="cls-1" d="M36.41,14.18c-.38.35-1.66.57-2.22.62-2.52.21-7.81.27-10.28-.01-1.04-.12-1.91-.43-2.32-1.46-.43-1.09-.41-6.72-.25-8.1.21-1.88,1.03-2.4,2.83-2.57,2.44-.23,8.17-.28,10.56,0,1.53.18,2.13.8,2.29,2.3.19,1.8.18,5.47.02,7.29-.05.53-.25,1.59-.62,1.94ZM33.78,5.09h-9.19v7.28h9.19v-7.28Z"/>
        <path class="cls-1" d="M80.18,2.73c2.08-.37,8.76-.28,11.03-.07,1,.09,2.1.26,2.43,1.34.31,1,.28,7.48.13,8.78-.12,1.02-.6,1.62-1.62,1.89-1.54.4-9.65.33-11.49.13-.9-.1-1.86-.38-2.22-1.28-.56-1.37-.58-8.72.18-9.92.29-.45,1.05-.77,1.57-.86ZM90.79,5.09h-9.46v7.28h9.46v-7.28Z"/>
        <path class="cls-1" d="M129.84,2.66c2.71.48,2.59,5.66,1.03,7.23l-3.32.59c1.94,1.2,3.83,2.7,5.4,4.32h-4.19c-.33,0-4.27-3.97-5-4.44l-2.7-.14v4.58h-2.97V2.66h11.75ZM121.05,8.05h7.16c.77,0,1.34-3.23-.54-3.23h-6.62v3.23Z"/>
        <path class="cls-1" d="M54.04,10.48V2.66h2.7v12.13l-1.74-.02c-3.68-2.19-6.77-5.45-10.42-7.8v7.81h-2.7V2.66c.85.02,1.77-.17,2.53.3l9.63,7.51Z"/>
        <path class="cls-1" d="M101.87,12.37h7.84V2.66h3.24v10.37c0,.07-.59,1.14-.73,1.23-.52.37-1.71.49-2.37.53-2.27.16-6.72.24-8.9-.03-.87-.11-2.32-.74-2.32-1.73V2.66c.58.05,3.24-.24,3.24.4v9.3Z"/>
        <path class="cls-1" d="M222.87,2.72l7.08,12.07c-.73-.15-3.02.23-3.47-.04-.16-.1-.86-2.36-1.57-2.61-.43-.15-7.29-.2-7.61,0-.13.08-1.02,2.29-1.39,2.52-.62.38-2.2,0-2.98.13,1.9-4.06,4.54-7.81,6.74-11.74.67-.69,2.27-.37,3.2-.33ZM223.73,9.67l-2.57-4.31-2.3,4.31h4.86Z"/>
        <path class="cls-1" d="M74.85,2.66v2.43h-5.67v9.7c-.58-.05-3.24.24-3.24-.4V5.09h-5.67v-2.43h14.59Z"/>
        <path class="cls-1" d="M235.89,2.66v9.7h9.46v2.43h-12.29s-.41-.38-.41-.4V3.07c0-.64,2.67-.35,3.24-.4Z"/>
        <polygon class="cls-1" points="163.48 2.66 163.48 12.37 172.93 12.37 172.93 14.79 160.5 14.79 160.5 2.66 163.48 2.66"/>
        <path class="cls-1" d="M247.51,6.17l-1.22-1.07-.14,1.08c-.75.84-1.94-4.1,1.24-2.44l.11,2.44ZM246.97,4.01h-.81v.54h.81v-.54Z"/>
      </g>
      <path class="cls-1" d="M28.83,93.37h-2.92l-4.87-7.38v7.38h-2.91v-11.96h2.91l4.87,7.41v-7.41h2.92v11.96Z"/>
      <path class="cls-1" d="M39.86,89.32h-6.59c.04.59.24,1.04.57,1.35.33.31.75.47,1.23.47.73,0,1.23-.31,1.52-.92h3.1c-.16.62-.45,1.19-.86,1.69-.41.5-.93.89-1.56,1.18-.62.28-1.32.43-2.1.43-.93,0-1.76-.2-2.49-.6-.73-.4-1.3-.97-1.71-1.7-.41-.74-.61-1.6-.61-2.59s.2-1.85.61-2.59c.4-.74.97-1.31,1.7-1.71.73-.4,1.56-.6,2.51-.6s1.74.19,2.45.58c.72.39,1.28.94,1.68,1.65.4.72.6,1.55.6,2.5,0,.27-.02.56-.05.85ZM36.93,87.7c0-.5-.17-.9-.51-1.19-.34-.29-.77-.44-1.28-.44s-.9.14-1.23.43c-.34.28-.54.69-.62,1.21h3.65Z"/>
      <path class="cls-1" d="M55.09,83.86l-2.57,9.51h-3.22l-1.5-6.17-1.55,6.17h-3.2l-2.59-9.51h2.91l1.35,6.8,1.6-6.8h3.08l1.62,6.77,1.33-6.77h2.74Z"/>
      <path class="cls-1" d="M66.75,93.37l-4.02-5.28v5.28h-2.91v-11.96h2.91v5.25l3.99-5.25h3.43l-4.64,5.86,4.81,6.1h-3.56Z"/>
      <path class="cls-1" d="M73.51,92.91c-.74-.4-1.33-.97-1.76-1.7s-.64-1.6-.64-2.59.21-1.84.65-2.58c.43-.74,1.02-1.31,1.77-1.71.75-.4,1.59-.6,2.52-.6s1.77.2,2.52.6c.75.4,1.34.97,1.77,1.71s.65,1.61.65,2.58-.22,1.84-.66,2.58-1.03,1.32-1.79,1.71-1.6.6-2.53.6-1.77-.2-2.51-.6ZM77.44,90.37c.39-.41.59-.99.59-1.76s-.19-1.35-.57-1.75c-.38-.41-.85-.61-1.41-.61s-1.04.2-1.42.61-.56.99-.56,1.76.18,1.35.55,1.76c.37.41.83.61,1.39.61s1.03-.21,1.42-.61Z"/>
      <path class="cls-1" d="M84.2,93.08c-.65-.28-1.16-.67-1.53-1.17s-.58-1.05-.63-1.66h2.88c.03.33.19.6.46.8.27.2.61.31,1.01.31.36,0,.64-.07.84-.21.2-.14.3-.33.3-.55,0-.27-.14-.47-.43-.6-.28-.13-.74-.28-1.38-.43-.68-.16-1.25-.33-1.7-.5-.46-.18-.85-.45-1.18-.83-.33-.38-.49-.89-.49-1.54,0-.55.15-1.04.45-1.49.3-.45.74-.8,1.33-1.07s1.28-.39,2.09-.39c1.19,0,2.13.29,2.82.89s1.08,1.38,1.18,2.35h-2.69c-.05-.33-.19-.59-.43-.78-.25-.19-.57-.29-.96-.29-.34,0-.6.07-.78.2-.18.13-.27.31-.27.54,0,.27.14.48.43.61.29.14.74.27,1.35.41.7.18,1.28.36,1.72.54.44.18.83.46,1.17.85.33.39.51.92.52,1.58,0,.56-.16,1.05-.47,1.49s-.76.78-1.35,1.03c-.58.25-1.26.38-2.04.38-.83,0-1.57-.14-2.21-.43Z"/>
      <path class="cls-1" d="M93.87,92.91c-.75-.4-1.33-.97-1.76-1.7s-.64-1.6-.64-2.59.22-1.84.65-2.58,1.02-1.31,1.77-1.71c.75-.4,1.59-.6,2.52-.6s1.77.2,2.52.6c.75.4,1.34.97,1.77,1.71s.65,1.61.65,2.58-.22,1.84-.66,2.58-1.03,1.32-1.79,1.71-1.6.6-2.53.6-1.77-.2-2.51-.6ZM97.81,90.37c.39-.41.59-.99.59-1.76s-.19-1.35-.57-1.75c-.38-.41-.85-.61-1.41-.61s-1.04.2-1.42.61-.56.99-.56,1.76.18,1.35.55,1.76c.37.41.83.61,1.39.61s1.03-.21,1.42-.61Z"/>
      <path class="cls-1" d="M107.19,90.65l2.06-6.78h3.1l-3.37,9.51h-3.6l-3.37-9.51h3.12l2.06,6.78Z"/>
      <path class="cls-1" d="M113.56,86.03c.37-.74.87-1.31,1.51-1.71.64-.4,1.35-.6,2.13-.6.67,0,1.26.14,1.76.41.5.27.89.63,1.17,1.07v-1.35h2.91v9.51h-2.91v-1.35c-.28.44-.68.8-1.18,1.07-.5.27-1.09.41-1.76.41-.77,0-1.48-.2-2.11-.61-.64-.4-1.14-.98-1.51-1.72s-.55-1.61-.55-2.58.18-1.83.55-2.57ZM119.52,86.9c-.4-.42-.89-.63-1.47-.63s-1.07.21-1.47.62-.61.99-.61,1.71.2,1.3.61,1.73.89.64,1.47.64,1.07-.21,1.47-.63c.4-.42.6-.99.6-1.72s-.2-1.3-.6-1.72Z"/>
      <path class="cls-1" d="M132.86,84.14c.5-.27,1.08-.41,1.76-.41.78,0,1.49.2,2.13.6.64.4,1.14.97,1.51,1.71.37.74.55,1.6.55,2.57s-.18,1.84-.55,2.58c-.37.74-.87,1.32-1.51,1.72s-1.35.61-2.13.61c-.66,0-1.24-.14-1.75-.41s-.9-.62-1.18-1.06v5.86h-2.91v-14.04h2.91v1.35c.28-.44.68-.8,1.18-1.07ZM135.23,86.89c-.4-.42-.9-.62-1.49-.62s-1.07.21-1.47.63c-.4.42-.6.99-.6,1.72s.2,1.3.6,1.72c.4.42.89.63,1.47.63s1.07-.21,1.48-.64.61-1,.61-1.73-.2-1.3-.6-1.71Z"/>
      <path class="cls-1" d="M142.15,92.91c-.75-.4-1.33-.97-1.76-1.7s-.64-1.6-.64-2.59.22-1.84.65-2.58,1.02-1.31,1.77-1.71c.75-.4,1.59-.6,2.52-.6s1.77.2,2.52.6c.75.4,1.34.97,1.77,1.71s.65,1.61.65,2.58-.22,1.84-.66,2.58-1.03,1.32-1.79,1.71-1.6.6-2.53.6-1.77-.2-2.51-.6ZM146.09,90.37c.39-.41.59-.99.59-1.76s-.19-1.35-.57-1.75c-.38-.41-.85-.61-1.41-.61s-1.04.2-1.42.61-.56.99-.56,1.76.18,1.35.55,1.76c.37.41.83.61,1.39.61s1.03-.21,1.42-.61Z"/>
      <path class="cls-1" d="M164.84,83.86l-2.57,9.51h-3.22l-1.5-6.17-1.55,6.17h-3.2l-2.59-9.51h2.91l1.35,6.8,1.6-6.8h3.08l1.62,6.77,1.33-6.77h2.74Z"/>
      <path class="cls-1" d="M174.87,89.32h-6.6c.05.59.24,1.04.57,1.35s.75.47,1.24.47c.73,0,1.23-.31,1.52-.92h3.1c-.16.62-.45,1.19-.86,1.69s-.93.89-1.56,1.18c-.62.28-1.32.43-2.1.43-.93,0-1.76-.2-2.49-.6-.73-.4-1.29-.97-1.7-1.7s-.61-1.6-.61-2.59.2-1.85.6-2.59c.4-.74.97-1.31,1.7-1.71.73-.4,1.56-.6,2.5-.6s1.74.19,2.45.58c.72.39,1.28.94,1.68,1.65s.6,1.55.6,2.5c0,.27-.02.56-.05.85ZM171.93,87.7c0-.5-.17-.9-.51-1.19-.34-.29-.77-.44-1.28-.44s-.9.14-1.24.43c-.34.28-.54.69-.62,1.21h3.65Z"/>
      <path class="cls-1" d="M180.64,84.21c.51-.3,1.08-.45,1.7-.45v3.08h-.8c-.73,0-1.27.16-1.64.47-.36.31-.55.86-.55,1.64v4.41h-2.91v-9.51h2.91v1.58c.34-.52.77-.93,1.28-1.24Z"/>
      <path class="cls-1" d="M191.45,84.14c.5-.27,1.08-.41,1.76-.41.78,0,1.49.2,2.13.6.64.4,1.14.97,1.51,1.71.37.74.55,1.6.55,2.57s-.18,1.84-.55,2.58c-.37.74-.87,1.32-1.51,1.72s-1.35.61-2.13.61c-.66,0-1.24-.14-1.75-.41s-.9-.62-1.18-1.06v5.86h-2.91v-14.04h2.91v1.35c.28-.44.68-.8,1.18-1.07ZM193.82,86.89c-.4-.42-.9-.62-1.49-.62s-1.07.21-1.47.63c-.4.42-.6.99-.6,1.72s.2,1.3.6,1.72c.4.42.89.63,1.47.63s1.07-.21,1.48-.64.61-1,.61-1.73-.2-1.3-.6-1.71Z"/>
      <path class="cls-1" d="M201.84,80.76v12.61h-2.91v-12.61h2.91Z"/>
      <path class="cls-1" d="M203.93,86.03c.37-.74.87-1.31,1.51-1.71.64-.4,1.35-.6,2.13-.6.67,0,1.26.14,1.76.41.5.27.89.63,1.17,1.07v-1.35h2.91v9.51h-2.91v-1.35c-.28.44-.68.8-1.18,1.07-.5.27-1.09.41-1.76.41-.77,0-1.48-.2-2.11-.61-.64-.4-1.14-.98-1.51-1.72s-.55-1.61-.55-2.58.18-1.83.55-2.57ZM209.89,86.9c-.4-.42-.89-.63-1.47-.63s-1.07.21-1.47.62-.61.99-.61,1.71.2,1.3.61,1.73.89.64,1.47.64,1.07-.21,1.47-.63c.4-.42.6-.99.6-1.72s-.2-1.3-.6-1.72Z"/>
      <path class="cls-1" d="M223.99,84.84c.66.72,1,1.71,1,2.97v5.56h-2.9v-5.16c0-.64-.17-1.13-.49-1.48-.33-.35-.77-.53-1.33-.53s-1,.18-1.33.53c-.33.35-.49.85-.49,1.48v5.16h-2.91v-9.51h2.91v1.26c.3-.42.69-.75,1.19-1s1.06-.37,1.69-.37c1.11,0,2,.36,2.67,1.08Z"/>
      <path class="cls-1" d="M232.31,90.9v2.47h-1.48c-1.06,0-1.88-.26-2.47-.78-.59-.52-.89-1.36-.89-2.53v-3.78h-1.16v-2.42h1.16v-2.32h2.91v2.32h1.91v2.42h-1.91v3.82c0,.28.07.49.21.61.14.12.36.19.68.19h1.04Z"/>
    </g>
  </g>
</svg>