<?xml version="1.0" encoding="UTF-8"?>
<svg id="Layer_2" data-name="Layer 2" xmlns="http://www.w3.org/2000/svg" viewBox="0 0 384.52 147.54">
  <defs>
    <style>
      .cls-1 {
        fill: #ccc;
      }

      .cls-2 {
        fill: #fff;
      }

      .cls-3 {
        fill: #b3b3b3;
      }
    </style>
  </defs>
  <g id="Layer_1-2" data-name="Layer 1">
    <g>
      <g>
        <path class="cls-3" d="M79.14,22l-47.34,49.84V22h47.34M130.38,0H9.8v126.95L130.38,0h0Z"/>
        <path class="cls-3" d="M98.58,75.69v49.84h-47.34l47.34-49.84M120.58,20.59L0,147.54h120.58V20.59h0Z"/>
      </g>
      <g>
        <polygon class="cls-2" points="320.84 28.05 339.81 55.61 339.81 28.05 348.61 28.05 348.61 70.15 339.96 70.15 321.24 42.79 320.38 41.98 320.38 70.15 311.58 70.15 311.58 28.05 320.84 28.05"/>
        <polygon class="cls-1" points="348.61 28.05 339.81 28.05 339.81 55.61 320.84 28.05 311.58 28.05 311.58 70.15 320.38 70.15 320.38 41.98 321.24 42.79 339.96 70.15 348.61 70.15 348.61 28.05 348.61 28.05"/>
      </g>
      <g>
        <path class="cls-2" d="M237.68,78.63l18.27,26.87.69.38v-27.26h8.5v42.09h-8.8c-6.15-9.48-12.59-18.9-19.12-28.16v28.16h-8.8v-42.09h9.26Z"/>
        <path class="cls-1" d="M265.15,78.63h-8.5v27.26l-.69-.38-18.27-26.87h-9.26v42.09h8.8v-28.16c6.53,9.26,12.97,18.68,19.12,28.16h8.8v-42.09h0Z"/>
      </g>
      <g>
        <path class="cls-2" d="M251.49,28.05v7.72s-.42.45-.46.45h-22.31v8.48h19.42v7.87h-19.42v9.39h22.31s.46.42.46.45v7.72h-31.87V28.05h31.87Z"/>
        <path class="cls-1" d="M251.49,28.05h-31.87v42.09h31.87v-7.72s-.42-.45-.46-.45h-22.31v-9.39h19.42v-7.87h-19.42v-8.48h22.31s.46-.42.46-.45v-7.72h0Z"/>
      </g>
      <g>
        <path class="cls-2" d="M279.41,78.63v18.47l15.63-18.47h10.77l-16.63,20.4,16.63,21.7h-11.38l-15.02-19.08v18.62s-.42.45-.46.45h-8.5s-.46-.42-.46-.45v-41.64h9.41Z"/>
        <path class="cls-1" d="M305.82,78.63h-10.77l-15.63,18.47v-18.47h-9.41v41.64s.42.45.46.45h8.5s.46-.42.46-.45v-18.62l15.02,19.08h11.38l-16.63-21.7,16.63-20.4h0Z"/>
      </g>
      <g>
        <path class="cls-2" d="M382.3,38.65c-2.06-.65-3.92-1.95-6.07-2.58-3.37-.98-13.67-2.36-14.27,2.72-.25,2.08.21,3.08,2.03,4.04,4.85,2.55,11.64,1.71,16.46,5.38,6.34,4.83,5,16.87-2.09,20.58-6.54,3.43-19.31,2.63-25.51-1.53v-8.63c2.67,1.57,5.48,3.07,8.55,3.74,3.03.66,12.86,1.63,13.59-2.69.63-3.7-1.4-4.79-4.47-5.8-4.49-1.49-9.24-1.48-13.39-4.2-6.11-4-5.99-13.91-.79-18.61,5.99-5.41,19.24-4.73,25.96-.75v8.33Z"/>
        <path class="cls-1" d="M369.1,27.18c-4.92,0-9.75,1.18-12.76,3.89-5.2,4.7-5.32,14.6.79,18.61,4.15,2.72,8.9,2.71,13.39,4.2,3.07,1.02,5.1,2.11,4.47,5.8-.44,2.58-4.12,3.27-7.66,3.27-2.39,0-4.71-.32-5.93-.58-3.07-.66-5.87-2.17-8.55-3.74v8.63c3.57,2.39,9.32,3.67,14.81,3.67,4.03,0,7.93-.69,10.7-2.15,7.08-3.71,8.43-15.75,2.09-20.58-4.82-3.67-11.61-2.83-16.46-5.38-1.83-.96-2.28-1.96-2.03-4.04.34-2.84,3.71-3.67,7.2-3.67,2.76,0,5.59.51,7.07.94,2.15.63,4,1.92,6.07,2.58v-8.33c-3.35-1.98-8.31-3.15-13.2-3.15h0Z"/>
      </g>
      <g>
        <path class="cls-2" d="M175.92,37.74c-10.25-4.11-24.3-2.27-24.3,11.36,0,13.46,14.26,15.67,24.3,11.05v8.48c-8.33,3.68-19.51,3.06-26.56-3.02-10.51-9.05-9.28-27.94,2.8-35.08,6.85-4.05,16.71-4.5,23.77-.82v8.03Z"/>
        <path class="cls-1" d="M165,27.21c-4.55,0-9.13,1.14-12.84,3.33-12.08,7.14-13.31,26.03-2.8,35.08,4.19,3.61,9.85,5.3,15.49,5.3,3.85,0,7.7-.78,11.07-2.28v-8.48c-3.09,1.42-6.58,2.2-9.93,2.2-7.54,0-14.37-3.93-14.37-13.25,0-9.53,6.86-13.29,14.5-13.29,3.29,0,6.72.7,9.8,1.94v-8.03c-3.24-1.69-7.07-2.51-10.93-2.51h0Z"/>
      </g>
      <g>
        <rect class="cls-2" x="297.62" y="28.05" width="9.1" height="42.09"/>
        <polygon class="cls-1" points="306.73 28.05 297.62 28.05 297.62 70.15 306.73 70.15 306.73 28.05 306.73 28.05"/>
      </g>
      <g>
        <path class="cls-2" d="M175.92,98.16l3.03-2.43c4.69-7.78.9-16.07-8.34-17.1h-22.31v42.09h22.91c2.39,0,6.38-1.46,8.2-3.02,6.18-5.28,4.71-16.96-3.49-19.54ZM157.41,86.5c3.24.33,7.34-.45,10.47,0,3.71.53,5.08,4.85,2.74,7.58-.53.62-2.31,1.5-3.04,1.5h-10.17v-9.09ZM172.13,111.64c-.67.49-2.89,1.21-3.64,1.21h-11.08v-9.39h12.29c.49,0,2.48.92,2.89,1.36,1.61,1.73,1.5,5.38-.46,6.82Z"/>
        <path class="cls-1" d="M170.61,78.63h-22.31v42.09h22.91c2.39,0,6.38-1.46,8.2-3.02,6.18-5.28,4.71-16.96-3.49-19.54l3.03-2.43c4.69-7.78.9-16.07-8.34-17.1h0ZM159.29,86.59c2.03,0,4.23-.23,6.25-.23.82,0,1.61.04,2.34.14,3.71.53,5.08,4.85,2.74,7.58-.53.62-2.31,1.5-3.04,1.5h-10.17v-9.09c.6.06,1.23.09,1.88.09h0ZM157.41,112.85v-9.39h12.29c.49,0,2.48.92,2.89,1.36,1.61,1.73,1.5,5.38-.46,6.82-.67.49-2.89,1.21-3.64,1.21h-11.08Z"/>
      </g>
      <g>
        <path class="cls-2" d="M211.13,50.92c4.63-4.43,4.55-14.66,0-19.1-1.78-1.74-6.82-3.77-9.27-3.77h-21.09v42.09h9.41v-15.44h6.07l6.98,15.44h11.23l-8.17-16.17c1.56-1.09,3.44-1.71,4.84-3.05ZM203.21,46.05c-.2.12-1.85.78-1.95.78h-11.08v-10.6h11.08c.11,0,1.75.66,1.95.78,2.9,1.75,2.9,7.29,0,9.04Z"/>
        <path class="cls-1" d="M201.87,28.05h-21.09v42.09h9.41v-15.44h6.07l6.98,15.44h11.23l-8.17-16.17c1.56-1.09,3.44-1.71,4.84-3.05,4.63-4.43,4.55-14.66,0-19.1-1.78-1.74-6.82-3.77-9.27-3.77h0ZM190.19,46.83v-10.6h11.08c.11,0,1.75.66,1.95.78,2.9,1.75,2.9,7.29,0,9.04-.2.12-1.85.78-1.95.78h-11.08Z"/>
      </g>
      <g>
        <path class="cls-2" d="M288.07,33.79c-2.75-2.78-9.8-5.74-13.67-5.74h-18.06v42.09c11.13-.44,25.74,2.48,33.33-7.77,5.58-7.53,5.1-21.79-1.61-28.58ZM279.32,59.91c-.93.6-4.54,2.06-5.52,2.06h-8.35v-25.74h8.65c.53,0,3.86,1.22,4.5,1.57,7.09,3.88,7.38,17.82.72,22.11Z"/>
        <path class="cls-1" d="M274.41,28.05h-18.06v42.09c.91-.04,1.85-.05,2.8-.05,2.82,0,5.79.12,8.76.12,8.3,0,16.63-.91,21.77-7.84,5.58-7.53,5.1-21.79-1.61-28.58-2.75-2.78-9.8-5.74-13.67-5.74h0ZM265.45,61.97v-25.74h8.65c.53,0,3.86,1.22,4.5,1.57,7.09,3.88,7.38,17.82.72,22.11-.93.6-4.54,2.06-5.52,2.06h-8.35Z"/>
      </g>
      <g>
        <path class="cls-2" d="M208.56,78.61c-1.45.27-8.5-.42-9.12.32l-16.24,41.79h9.41c.81-1.63,1.93-6.73,2.88-7.88.25-.3.53-.33.89-.32l15.76.06.45.46,2.78,7.67h9.71l-16.52-42.11ZM198.68,104.67l5.31-15.45,5.31,15.45h-10.62Z"/>
        <path class="cls-1" d="M202.26,78.57c-1.43,0-2.59.08-2.82.36l-16.24,41.79h9.41c.81-1.63,1.93-6.73,2.88-7.88.22-.27.47-.32.78-.32.04,0,.08,0,.12,0l15.76.06.45.46,2.78,7.67h9.71l-16.52-42.11c-.26.05-.71.07-1.27.07-1.36,0-3.38-.1-5.03-.1h0ZM198.68,104.67l5.31-15.45,5.31,15.45h-10.62Z"/>
      </g>
    </g>
  </g>
</svg>