<?xml version="1.0" encoding="UTF-8"?>
<svg id="Layer_2" data-name="Layer 2" xmlns="http://www.w3.org/2000/svg" viewBox="0 0 132.23 147.04">
  <defs>
    <style>
      .cls-1 {
        fill: #ccc;
      }

      .cls-2 {
        fill: none;
        stroke: #ccc;
        stroke-miterlimit: 10;
        stroke-width: 7.74px;
      }
    </style>
  </defs>
  <g id="Layer_1-2" data-name="Layer 1">
    <g>
      <g>
        <path class="cls-1" d="M.91,141.24H.26c-.13,0-.26-.12-.26-.25,0-.14.12-.25.26-.25h.65v-1.01c0-.14.12-.25.26-.25.14,0,.26.11.26.25v1.01h1.37c.14,0,.26.11.26.25,0,.13-.11.25-.26.25h-1.37v2c0,.61.42.92,1.24.92.14,0,.26.12.26.25,0,.14-.12.25-.26.25-1.27,0-1.75-.55-1.75-1.42v-2Z"/>
        <path class="cls-1" d="M4.3,140.99c0-.14.12-.25.26-.25.14,0,.26.11.26.25v.59c.54-.55,1.16-.83,1.73-.83.14,0,.25.1.25.23s-.09.24-.23.26c-.8.1-1.32.51-1.75,1.15v2.02c0,.14-.11.25-.26.25-.13,0-.26-.12-.26-.25v-3.41Z"/>
        <path class="cls-1" d="M8.56,144.65c-.96,0-1.26-.61-1.26-1.06,0-.32.11-.63.36-.86.34-.31.91-.55,1.75-.55.23,0,.45,0,.7.03-.05-.6-.4-.98-1.11-.98-.28,0-.6.06-.75.11-.08.03-.17.05-.2.05-.13,0-.27-.12-.27-.24,0-.11.06-.21.18-.25.24-.07.67-.17,1.04-.17,1.12,0,1.64.66,1.64,1.62v.91c0,.46.1.74.31.96.05.05.07.11.07.17,0,.14-.12.25-.26.25-.07,0-.13-.03-.18-.08-.16-.16-.27-.35-.35-.58-.46.43-1.03.67-1.67.67ZM10.12,142.72c-.26-.02-.48-.03-.71-.03-.66,0-1.12.14-1.38.39-.16.16-.22.34-.22.52,0,.27.24.56.74.56.59,0,1.13-.25,1.57-.79v-.65Z"/>
        <path class="cls-1" d="M12.07,141.69c-.2-.45-.26-.67-.26-.7,0-.13.11-.25.26-.25.1,0,.2.06.24.16.53,1.32,1.01,2.29,1.48,3.07.48-.86,1.04-2.12,1.4-3.07.03-.09.13-.16.24-.16.13,0,.26.12.26.25,0,.04-.08.29-.22.62-.32.77-.9,2.09-1.44,2.96-.04.07-.13.12-.22.12h-.03c-.08,0-.17-.05-.22-.12-.56-.87-1.07-1.91-1.49-2.88Z"/>
        <path class="cls-1" d="M18.44,140.74c1.08,0,1.67.75,1.67,1.34,0,.48-.25.88-1.1.88h-2.02c.1.8.77,1.2,1.67,1.2.34,0,.64-.07.79-.12.14-.05.17-.06.21-.06.13,0,.26.12.26.25,0,.1-.06.19-.17.23-.29.11-.69.2-1.09.2-1.32,0-2.19-.69-2.19-1.91s.89-2.01,1.98-2.01ZM19.02,142.46c.41,0,.59-.14.59-.38,0-.41-.46-.84-1.16-.84s-1.32.49-1.44,1.22h2.02Z"/>
        <path class="cls-1" d="M21.89,139.05c.14,0,.26.11.26.25v5.1c0,.14-.11.25-.26.25-.13,0-.26-.12-.26-.25v-5.1c0-.14.12-.25.26-.25Z"/>
      </g>
      <path class="cls-1" d="M31.16,137.06v9.98h-.69v-9.98h.69Z"/>
      <g>
        <polyline class="cls-2" points="101.18 20.08 32.78 20.08 32.78 34.67 115.76 34.67"/>
        <polyline class="cls-2" points="115.76 52.55 30.47 52.55 28.2 52.55"/>
        <polyline class="cls-2" points="101.18 68.75 32.78 68.75 32.78 83.34 115.76 83.34"/>
        <polygon class="cls-2" points="115.76 83.34 115.76 100.65 11.06 100.65 11.06 44.07 11.06 3.87 115.76 3.87 115.76 34.67 115.76 52.55 115.76 83.34"/>
      </g>
      <g>
        <path class="cls-1" d="M10.95,114.53c3.89,0,6.01,2.78,6.01,4.97,0,1.78-.89,3.26-3.97,3.26h-7.27c.37,2.97,2.78,4.45,6.01,4.45,1.22,0,2.3-.26,2.86-.45.52-.19.63-.22.74-.22.48,0,.93.45.93.93,0,.37-.22.71-.59.85-1.04.41-2.49.74-3.93.74-4.75,0-7.9-2.56-7.9-7.08s3.19-7.46,7.12-7.46ZM13.03,120.91c1.48,0,2.11-.52,2.11-1.41,0-1.52-1.67-3.12-4.19-3.12s-4.75,1.82-5.19,4.53h7.27Z"/>
        <path class="cls-1" d="M22.23,135.23v-19.77c0-.52.45-.93.93-.93.52,0,.93.41.93.93v1.48c1.56-1.52,3.34-2.41,5.27-2.41,3.45,0,6.6,2.49,6.6,7.27,0,4.15-2.89,7.27-7.05,7.27-1.63,0-3.3-.56-4.82-1.52v7.68c0,.52-.41.93-.93.93-.48,0-.93-.41-.93-.93ZM29.35,116.39c-2.08,0-3.82,1.34-5.27,3.3v5.64c1.45,1.11,3.15,1.89,4.82,1.89,3.12,0,5.19-2.37,5.19-5.42,0-3.45-2.19-5.42-4.75-5.42Z"/>
        <path class="cls-1" d="M51.54,120.73c0-3.04-1.26-4.34-3.23-4.34-2.08,0-4.01,1.3-5.56,2.86v8.9c0,.52-.41.93-.93.93-.48,0-.93-.45-.93-.93v-18.96c0-.52.45-.93.93-.93.52,0,.93.41.93.93v7.6c1.67-1.3,3.49-2.26,5.56-2.26,2.78,0,5.08,1.45,5.08,6.19v7.42c0,.52-.41.93-.93.93-.48,0-.93-.45-.93-.93v-7.42Z"/>
        <path class="cls-1" d="M65.11,114.53c3.89,0,6.01,2.78,6.01,4.97,0,1.78-.89,3.26-3.97,3.26h-7.27c.37,2.97,2.78,4.45,6.01,4.45,1.22,0,2.3-.26,2.86-.45.52-.19.63-.22.74-.22.48,0,.93.45.93.93,0,.37-.22.71-.59.85-1.04.41-2.49.74-3.93.74-4.75,0-7.9-2.56-7.9-7.08s3.19-7.46,7.12-7.46ZM67.19,120.91c1.48,0,2.11-.52,2.11-1.41,0-1.52-1.67-3.12-4.19-3.12s-4.75,1.82-5.19,4.53h7.27Z"/>
        <path class="cls-1" d="M77.47,118.46c0,1.11,1,1.74,3.6,2l1.48.15c3.78.37,4.93,2.37,4.93,4.34s-1.26,4.27-5.97,4.27c-1.85,0-3.82-.37-5.56-1.11-.33-.15-.56-.52-.56-.89,0-.45.48-.89.96-.89.11,0,.3.07.93.33.93.37,2.6.7,4.23.7,2.67,0,4.12-1,4.12-2.41,0-1.3-.89-2.26-3.23-2.48l-1.48-.15c-4.41-.45-5.3-2.26-5.3-3.9,0-1.82,1.3-4.01,5.67-4.01,1.67,0,3.15.26,4.3.59.41.07.67.48.67.89,0,.56-.45.93-.93.93-.15,0-.37-.04-.78-.15-.52-.15-1.82-.41-3.26-.41-2.41,0-3.82.96-3.82,2.19Z"/>
        <path class="cls-1" d="M102.99,126.48c-1.63,1.52-3.63,2.6-5.56,2.6-2.78,0-5.08-1.45-5.08-6.2v-7.42c0-.52.44-.93.93-.93.52,0,.93.41.93.93v7.42c0,3.04,1.26,4.34,3.23,4.34s4.16-1.45,5.56-3.34v-8.42c0-.52.45-.93.93-.93.52,0,.93.41.93.93v12.69c0,.52-.41.93-.93.93-.48,0-.93-.45-.93-.93v-1.67Z"/>
        <path class="cls-1" d="M112.6,118.46c0,1.11,1,1.74,3.6,2l1.48.15c3.78.37,4.93,2.37,4.93,4.34s-1.26,4.27-5.97,4.27c-1.86,0-3.82-.37-5.56-1.11-.33-.15-.56-.52-.56-.89,0-.45.48-.89.96-.89.11,0,.3.07.93.33.93.37,2.6.7,4.23.7,2.67,0,4.12-1,4.12-2.41,0-1.3-.89-2.26-3.23-2.48l-1.48-.15c-4.41-.45-5.3-2.26-5.3-3.9,0-1.82,1.3-4.01,5.68-4.01,1.67,0,3.15.26,4.3.59.41.07.67.48.67.89,0,.56-.45.93-.93.93-.15,0-.37-.04-.78-.15-.52-.15-1.82-.41-3.26-.41-2.41,0-3.82.96-3.82,2.19Z"/>
      </g>
      <g>
        <path class="cls-1" d="M107.01,142.34c0-.82-.35-1.17-.9-1.17-.58,0-1.11.35-1.54.77v2.39c0,.14-.11.25-.26.25-.13,0-.26-.12-.26-.25v-5.1c0-.14.12-.25.26-.25.14,0,.26.11.26.25v2.05c.46-.35.97-.61,1.54-.61.77,0,1.41.39,1.41,1.67v2c0,.14-.11.25-.26.25-.13,0-.26-.12-.26-.25v-2Z"/>
        <path class="cls-1" d="M110.84,144.63c-1.25,0-2.05-.86-2.05-1.97s.78-2.03,2.05-2.03,2.05.92,2.05,2.05-.79,1.95-2.05,1.95ZM110.84,144.13c.93,0,1.53-.63,1.53-1.45s-.59-1.55-1.53-1.55-1.54.7-1.54,1.53.6,1.47,1.54,1.47Z"/>
        <path class="cls-1" d="M114.58,138.99c.14,0,.26.11.26.25v5.1c0,.14-.11.25-.26.25-.13,0-.26-.12-.26-.25v-5.1c0-.14.12-.25.26-.25Z"/>
        <path class="cls-1" d="M116.97,139.6c-.25,0-.44-.18-.44-.47s.19-.5.43-.5.42.2.42.5-.2.47-.41.47ZM116.97,140.67c.14,0,.26.11.26.25v3.41c0,.14-.11.25-.26.25-.13,0-.26-.12-.26-.25v-3.41c0-.14.12-.25.26-.25Z"/>
        <path class="cls-1" d="M121.98,143.92c-.4.41-.9.67-1.5.67-1.01,0-1.8-.73-1.8-1.88s.87-2.04,2.02-2.04c.49,0,.91.13,1.29.36v-1.8c0-.14.12-.25.26-.25.14,0,.26.11.26.25v5.1c0,.14-.11.25-.26.25-.13,0-.26-.12-.26-.25v-.42ZM121.98,141.63c-.38-.29-.77-.46-1.29-.46-.87,0-1.5.65-1.5,1.54,0,.82.55,1.38,1.29,1.38.69,0,1.15-.38,1.5-.93v-1.53Z"/>
        <path class="cls-1" d="M125.14,144.59c-.96,0-1.26-.61-1.26-1.06,0-.32.11-.63.36-.86.34-.31.91-.55,1.75-.55.23,0,.45,0,.7.03-.05-.6-.4-.98-1.11-.98-.28,0-.6.06-.75.11-.08.03-.17.05-.2.05-.13,0-.27-.12-.27-.24,0-.11.06-.21.18-.25.24-.07.67-.17,1.04-.17,1.12,0,1.64.66,1.64,1.62v.91c0,.46.1.74.31.96.05.05.07.11.07.17,0,.14-.12.25-.26.25-.07,0-.13-.03-.18-.08-.16-.16-.27-.35-.35-.58-.46.43-1.03.67-1.67.67ZM126.7,142.65c-.26-.02-.48-.03-.71-.03-.66,0-1.12.14-1.38.39-.16.16-.22.34-.22.52,0,.27.24.56.74.56.59,0,1.13-.25,1.57-.79v-.65Z"/>
        <path class="cls-1" d="M128.53,145.85c.58-.32,1.1-.71,1.62-1.51-.53-.8-1.16-1.89-1.6-3.02-.11-.3-.13-.36-.13-.42,0-.11.1-.24.25-.24.1,0,.22.06.26.17.47,1.3,1.04,2.29,1.51,3.02.49-.86,1-2.03,1.3-3,.03-.11.11-.18.25-.18.14,0,.26.12.26.25,0,.04-.06.24-.1.36-.3.88-.9,2.26-1.44,3.17-.61,1-1.23,1.46-1.92,1.84-.03.02-.07.03-.11.03-.12,0-.27-.1-.27-.24,0-.09.05-.18.13-.23Z"/>
      </g>
      <g>
        <path class="cls-1" d="M44.02,142.2c0-.79-.36-1.07-.87-1.07s-1.01.32-1.4.74v2.42c0,.14-.11.25-.26.25-.13,0-.26-.12-.26-.25v-2.1c0-.79-.36-1.07-.87-1.07s-1.02.35-1.42.77v2.39c0,.14-.11.25-.26.25-.13,0-.26-.12-.26-.25v-3.41c0-.14.12-.25.26-.25.14,0,.26.11.26.25v.34c.43-.35.93-.59,1.42-.59.54,0,1,.15,1.24.69.46-.41,1.01-.69,1.54-.69.75,0,1.38.3,1.38,1.57v2.1c0,.14-.11.25-.26.25-.13,0-.26-.12-.26-.25v-2.1Z"/>
        <path class="cls-1" d="M47.79,140.63c1.08,0,1.67.75,1.67,1.34,0,.48-.25.88-1.1.88h-2.02c.1.8.77,1.2,1.67,1.2.34,0,.64-.07.79-.12.14-.05.17-.06.21-.06.13,0,.26.12.26.25,0,.1-.06.19-.17.23-.29.11-.69.2-1.09.2-1.32,0-2.19-.69-2.19-1.91s.89-2.01,1.98-2.01ZM48.36,142.35c.41,0,.59-.14.59-.38,0-.41-.46-.84-1.16-.84s-1.32.49-1.44,1.22h2.02Z"/>
        <path class="cls-1" d="M53.9,143.88c-.4.41-.9.67-1.5.67-1.01,0-1.8-.73-1.8-1.88s.87-2.04,2.02-2.04c.49,0,.91.13,1.29.36v-1.8c0-.14.12-.25.26-.25.14,0,.26.11.26.25v5.1c0,.14-.11.25-.26.25-.13,0-.26-.12-.26-.25v-.42ZM53.9,141.59c-.38-.29-.77-.46-1.29-.46-.87,0-1.5.65-1.5,1.54,0,.82.55,1.38,1.29,1.38.69,0,1.15-.38,1.5-.93v-1.53Z"/>
        <path class="cls-1" d="M58.75,142.35c0,.13-.11.25-.26.25h-2.08c-.13,0-.26-.12-.26-.25,0-.14.12-.25.26-.25h2.08c.14,0,.26.11.26.25Z"/>
        <path class="cls-1" d="M60.74,141.13h-.65c-.13,0-.26-.12-.26-.25,0-.14.12-.25.26-.25h.65v-1.01c0-.14.12-.25.26-.25.14,0,.26.11.26.25v1.01h1.37c.14,0,.26.11.26.25,0,.13-.11.25-.26.25h-1.37v2c0,.61.42.92,1.24.92.14,0,.26.12.26.25,0,.14-.12.25-.26.25-1.27,0-1.75-.55-1.75-1.42v-2Z"/>
        <path class="cls-1" d="M65.7,144.59c-1.25,0-2.05-.86-2.05-1.97s.78-2.03,2.05-2.03,2.05.92,2.05,2.05-.79,1.95-2.05,1.95ZM65.7,144.09c.93,0,1.53-.63,1.53-1.45s-.59-1.55-1.53-1.55-1.54.7-1.54,1.53.6,1.47,1.54,1.47Z"/>
        <path class="cls-1" d="M71.98,143.85c-.45.41-1.01.7-1.54.7-.77,0-1.41-.39-1.41-1.67v-2c0-.14.12-.25.26-.25.14,0,.26.11.26.25v2c0,.82.35,1.17.9,1.17s1.15-.39,1.54-.9v-2.27c0-.14.12-.25.26-.25.14,0,.26.11.26.25v3.41c0,.14-.11.25-.26.25-.13,0-.26-.12-.26-.25v-.45Z"/>
        <path class="cls-1" d="M74.25,140.88c0-.14.12-.25.26-.25.14,0,.26.11.26.25v.59c.54-.55,1.16-.83,1.73-.83.14,0,.25.1.25.23s-.09.24-.23.26c-.8.1-1.32.51-1.75,1.15v2.02c0,.14-.11.25-.26.25-.13,0-.26-.12-.26-.25v-3.41Z"/>
        <path class="cls-1" d="M78.13,139.56c-.25,0-.44-.18-.44-.47s.19-.5.43-.5.42.2.42.5-.2.47-.41.47ZM78.13,140.63c.14,0,.26.11.26.25v3.41c0,.14-.11.25-.26.25-.13,0-.26-.12-.26-.25v-3.41c0-.14.12-.25.26-.25Z"/>
        <path class="cls-1" d="M80.6,141.69c0,.3.28.47,1,.54l.41.04c1.05.1,1.37.64,1.37,1.17s-.35,1.15-1.66,1.15c-.51,0-1.06-.1-1.54-.3-.09-.04-.15-.14-.15-.24,0-.12.13-.24.27-.24.03,0,.08.02.26.09.26.1.72.19,1.17.19.74,0,1.14-.27,1.14-.65,0-.35-.25-.61-.9-.67l-.41-.04c-1.23-.12-1.47-.61-1.47-1.05,0-.49.36-1.08,1.58-1.08.46,0,.88.07,1.19.16.11.02.19.13.19.24,0,.15-.12.25-.26.25-.04,0-.1-.01-.22-.04-.14-.04-.5-.11-.91-.11-.67,0-1.06.26-1.06.59Z"/>
        <path class="cls-1" d="M90.41,142.2c0-.79-.36-1.07-.87-1.07s-1.01.32-1.4.74v2.42c0,.14-.11.25-.26.25-.13,0-.26-.12-.26-.25v-2.1c0-.79-.36-1.07-.87-1.07s-1.02.35-1.42.77v2.39c0,.14-.11.25-.26.25-.13,0-.26-.12-.26-.25v-3.41c0-.14.12-.25.26-.25.14,0,.26.11.26.25v.34c.43-.35.93-.59,1.42-.59.54,0,1,.15,1.24.69.46-.41,1.01-.69,1.54-.69.75,0,1.38.3,1.38,1.57v2.1c0,.14-.11.25-.26.25-.13,0-.26-.12-.26-.25v-2.1Z"/>
      </g>
      <path class="cls-1" d="M98.21,137.06v9.98h-.69v-9.98h.69Z"/>
    </g>
  </g>
</svg>