<?xml version="1.0" encoding="UTF-8"?>
<svg id="Layer_2" data-name="Layer 2" xmlns="http://www.w3.org/2000/svg" viewBox="0 0 152.02 186.68">
  <defs>
    <style>
      .cls-1 {
        fill: #ccc;
      }
    </style>
  </defs>
  <g id="Layer_1-2" data-name="Layer 1">
    <g>
      <path class="cls-1" d="M96.06,25.76c-1.04-1.08-2.09-2.17-3.13-3.25.08-1.58.12-3.15-.16-4.73-1.25-6.93-6.51-12.39-13.32-13.76-6.97-1.41-14.01,1.58-17.82,7.57-2.11,3.32-2.89,6.95-2.59,10.85-1.06,1.09-2.12,2.17-3.18,3.26-.19-1.69-.54-3.38-.55-5.07-.05-10.2,7.6-18.93,17.69-20.4,10.23-1.49,19.83,4.76,22.79,14.34,1.15,3.7,1.26,7.44.28,11.2Z"/>
      <g>
        <path class="cls-1" d="M119.43,52.12c-.37-2.35-1.48-4.29-3.14-5.97-6.38-6.45-12.75-12.92-19.12-19.38-.32-.32-.62-.67-.93-1.01-1.05-1.08-2.09-2.17-3.13-3.25-.34-.3-.7-.58-1.02-.9-2.81-2.83-5.6-5.68-8.42-8.51-2.1-2.11-4.67-3.14-7.64-3.08-2.77.06-5.17,1.1-7.15,3.05-2.88,2.82-5.75,5.65-8.63,8.47-.32.32-.69.59-1.03.88-1.06,1.09-2.12,2.17-3.18,3.26-.44.44-.88.88-1.33,1.32-6.35,6.25-12.71,12.48-19.04,18.75-4.26,4.23-4.29,10.59-.12,14.89.69.72,1.4,1.43,2.1,2.14.21.21.43.43.65.65.34.33.88.33,1.22,0,4.7-4.63,9.34-9.19,14.03-13.8.34-.34.35-.89.01-1.23-2.32-2.37-4.61-4.69-6.93-7.05-.33-.33-.33-.86-.01-1.21.08-.09.17-.18.25-.26,8.13-8,16.26-15.99,24.39-23.99.18-.17.36-.35.55-.51,2.63-2.27,6.43-2.24,9,.08.37.33.71.7,1.07,1.05,7.83,7.94,15.67,15.88,23.5,23.82.12.12.23.24.35.36.32.35.31.89-.03,1.22-2.3,2.24-4.57,4.46-6.9,6.73-.34.34-.35.89-.01,1.24,4.6,4.67,9.15,9.28,13.63,13.83.33.33.86.35,1.21.03,1.31-1.19,2.62-2.28,3.69-3.56,1.93-2.31,2.6-5.06,2.12-8.07ZM48.36,48.43c.31.35.29.87-.04,1.2-2.93,2.88-5.82,5.72-8.76,8.61-.33.33-.87.33-1.21.02-1.2-1.12-1.93-2.48-2.13-4.14-.25-2.05.3-3.9,1.73-5.4,1.55-1.61,3.16-3.16,4.76-4.72.32-.32.84-.33,1.18-.04,1.15,1,3.28,3.12,4.47,4.47ZM113.79,58.63c-.34.33-.89.33-1.23-.01-2.85-2.89-5.67-5.74-8.41-8.51-.33-.34-.33-.87,0-1.21,1.39-1.46,2.75-2.88,4.14-4.33.33-.35.89-.36,1.22-.03,0,0,0,0,0,0,1.41,1.42,2.78,2.86,4.21,4.26,3,2.92,2.68,7.28.06,9.84Z"/>
        <path class="cls-1" d="M119.55,85.47c-.11-2.73-1.2-5.07-3.13-7.01-3.51-3.55-7.02-7.11-10.53-10.66-.06-.06-.11-.11-.17-.17-.3-.28-.77-.28-1.06,0-5.53,5.44-11.04,10.85-16.42,16.13-1.91-1.82-3.76-3.49-5.5-5.28-1.14-1.17-1.63-2.68-1.63-4.34,0-1.99.76-3.63,2.16-5.01,3.74-3.67,7.48-7.35,11.21-11.03.13-.13.25-.25.38-.39.3-.31.29-.82,0-1.13h0c-3.65-3.71-7.28-7.43-10.95-11.12-4.38-4.4-10.73-4.46-15.18-.12l-11.22,11.15c-.32.32-.32.83,0,1.15l2.9,2.94.2.21c2.77,2.8,5.53,5.59,8.28,8.41,2.89,2.96,2.85,6.96-.08,9.9-1.44,1.44-2.9,2.87-4.36,4.29-.2.2-.43.37-.7.61-5.46-5.53-10.89-11.03-16.37-16.58-.3-.3-.78-.3-1.08,0-3.8,3.75-7.6,7.37-11.22,11.16-2.28,2.39-3.01,5.4-2.44,8.69.41,2.34,1.58,4.24,3.24,5.92,8.87,8.97,17.72,17.95,26.57,26.93,1.99,2.02,3.94,4.07,5.98,6.03,2.75,2.66,6.05,3.54,9.78,2.73,2.05-.45,3.74-1.55,5.22-3.01,9.07-8.94,18.16-17.87,27.24-26.8,1.96-1.93,3.93-3.84,5.87-5.79,2.13-2.15,3.15-4.78,3.03-7.8ZM67.09,85.98c1.45-1.44,2.91-2.85,4.35-4.29,4.33-4.34,4.36-10.68.06-15.07-1.59-1.62-3.18-3.25-4.78-4.86l-4.01-4.01c-.32-.32-.32-.84,0-1.15l8.64-8.61c1.26-1.24,2.74-1.99,4.54-2.07,2.08-.1,3.83.61,5.28,2.08l8.42,8.59c.31.31.31.82,0,1.13-.13.14-.26.27-.4.41-2.9,2.86-5.82,5.71-8.71,8.59-2.11,2.1-3.14,4.67-3.07,7.65.06,2.74,1.09,5.1,2.99,7.06,1.36,1.41,2.74,2.79,4.11,4.18.29.29.56.59.88.94-1.79,1.75-3.45,3.5-5.25,5.1-2.59,2.3-6.45,2.22-8.98-.15-1.61-1.51-3.11-3.12-4.72-4.75.23-.28.41-.54.63-.77ZM47,99.19c-2.92-2.96-5.84-5.91-8.76-8.87-1.31-1.33-2.04-2.91-2.07-4.79-.03-1.79.53-3.39,1.77-4.65,2.72-2.75,5.49-5.44,8.33-8.23.3-.3.78-.29,1.08,0,4.4,4.46,8.77,8.88,13.26,13.43.3.3.29.79,0,1.08-4.16,4.09-8.25,8.12-12.38,12.17-.29.29-.76.29-1.05.02-.06-.05-.11-.11-.17-.16ZM100.78,103.6c-6.67,6.57-13.37,13.11-20.01,19.71-2.49,2.48-5.97,2.68-8.35,1.27-.64-.38-1.22-.87-1.74-1.4-6.56-6.62-13.1-13.26-19.64-19.9-.01-.01-.02-.02-.03-.03-.39-.4-.38-1.04.02-1.43,4-3.94,7.97-7.85,11.93-11.74.39-.39,1.03-.39,1.42,0,1.31,1.27,2.58,2.5,3.82,3.74,1.02,1.01,2.14,1.87,3.48,2.38,4.19,1.59,8.01.95,11.35-2.08,1.39-1.26,2.68-2.62,4.01-3.93.07-.07.14-.14.21-.21.39-.37,1-.38,1.4-.01,2.41,2.24,9.79,9.67,12.17,12.25.37.4.36,1.02-.02,1.4,0,0,0,0,0,0ZM115.6,87.81c-.27,1.02-.77,1.94-1.52,2.69-3.01,2.99-6.05,5.97-9.17,9.05-.4.39-1.04.39-1.44-.01-4.11-4.17-8.15-8.26-12.18-12.34-.29-.29-.29-.76-.02-1.06,2.19-2.37,11.03-11.11,13.43-13.3.29-.26.74-.25,1.02.03h0c2.69,2.73,5.39,5.44,8.07,8.18,1.87,1.91,2.5,4.17,1.81,6.76Z"/>
        <g>
          <path class="cls-1" d="M0,141.33h12.87v3.39H3.34v3.56h6.48v3.39H3.34v3.56h9.53v3.39H0v-17.29Z"/>
          <path class="cls-1" d="M15.03,141.33h3.54l4.69,12.52,4.69-12.52h3.54l-6.41,17.29h-3.63l-6.41-17.29Z"/>
          <path class="cls-1" d="M33.99,141.33h12.87v3.39h-9.53v3.56h6.48v3.39h-6.48v3.56h9.53v3.39h-12.87v-17.29Z"/>
          <path class="cls-1" d="M50.05,141.33h8.69c1.11,0,2.11.24,3,.71.88.48,1.57,1.13,2.06,1.95.49.83.74,1.76.74,2.79,0,1.21-.34,2.27-1.01,3.17-.67.9-1.59,1.54-2.75,1.92l3.9,6.75h-3.86l-3.71-6.41h-3.73v6.41h-3.34v-17.29ZM58.72,148.85c.79,0,1.39-.19,1.82-.56.43-.38.64-.88.64-1.5s-.21-1.12-.64-1.5c-.43-.38-1.03-.56-1.82-.56h-5.33v4.13h5.33Z"/>
          <path class="cls-1" d="M71.37,157.6c-1.38-.79-2.46-1.86-3.27-3.21-.8-1.34-1.2-2.82-1.2-4.42s.4-3.08,1.2-4.42c.8-1.34,1.89-2.41,3.27-3.21,1.38-.79,2.9-1.19,4.57-1.19,3.01,0,5.4,1.14,7.17,3.41l-2.63,2.06c-.56-.72-1.2-1.26-1.93-1.61-.73-.35-1.6-.53-2.62-.53s-2.01.25-2.87.74c-.87.49-1.55,1.15-2.05,1.99-.5.84-.75,1.75-.75,2.75s.25,1.92.75,2.75c.5.84,1.18,1.5,2.05,1.99.87.49,1.83.74,2.87.74,1.83,0,3.28-.5,4.35-1.5v-2.28h-5.16v-3h8.37v6.7c-.85,1.1-1.94,1.94-3.25,2.53-1.32.59-2.75.88-4.31.88-1.67,0-3.19-.4-4.57-1.19Z"/>
          <path class="cls-1" d="M86.89,141.33h8.69c1.11,0,2.11.24,3,.71.88.48,1.57,1.13,2.06,1.95.49.83.74,1.76.74,2.79,0,1.21-.34,2.27-1.01,3.17-.67.9-1.59,1.54-2.75,1.92l3.9,6.75h-3.86l-3.71-6.41h-3.73v6.41h-3.34v-17.29ZM95.56,148.85c.79,0,1.39-.19,1.82-.56.43-.38.64-.88.64-1.5s-.21-1.12-.64-1.5c-.43-.38-1.03-.56-1.82-.56h-5.33v4.13h5.33Z"/>
          <path class="cls-1" d="M104.67,141.33h12.87v3.39h-9.53v3.56h6.48v3.39h-6.48v3.56h9.53v3.39h-12.87v-17.29Z"/>
          <path class="cls-1" d="M120.73,141.33h12.87v3.39h-9.53v3.56h6.48v3.39h-6.48v3.56h9.53v3.39h-12.87v-17.29Z"/>
          <path class="cls-1" d="M136.79,141.33h3.39l8.47,11.62v-11.62h3.36v17.29h-3.39l-8.5-11.67v11.67h-3.34v-17.29Z"/>
        </g>
        <g>
          <path class="cls-1" d="M68.13,158.03c-.08-.49-.18-.95-.33-1.44-.08-.23-.31-.46-.51-.56-.23-.08-.36.05-.28.28.13.41.23.82.28,1.26.62,4.57-2.49,10.49-6.26,15.42-3.74,4.92-8.11,8.85-9.98,9.47-.1.03-.21.05-.28.05-.21.03-.31-.05-.33-.26-.26-1.98,1.64-7.05,3.41-11.8.77-2.08,1.51-4.08,2.08-5.77.44-1.36.21-2.41-.46-3.18-1.31-1.49-3.92-1.74-5.69-1.41-3.82.74-8.39,3.46-9.8,6.49-.08.15.13.64.36.85.23.21.46.26.51.1,1.39-2.95,5.98-5.41,9.75-6.13,1.08-.21,3.64-.49,4.46.44.33.38.38,1.08.05,2.15-.54,1.67-1.31,3.69-2.08,5.75-1.8,4.8-3.72,9.93-3.41,12.06.15,1.15.69,1.74,1.74,1.62.1-.03.23-.05.33-.08,1.9-.62,6.75-4.39,10.54-9.36,3.8-4.98,6.54-11.18,5.9-15.93Z"/>
          <path class="cls-1" d="M106.44,180.53c-.13-.26-.38-.46-.59-.49-4.75-.41-8.44-.38-11.23-.08,1.56-2.74,2.87-5.26,2.87-5.28l.03-.03.56-1c.08-.13-.05-.38-.26-.59-.23-.2-.44-.28-.54-.15.07.32-2.86,4.48-4.59,4.1-.15-.1-.1-.67-.05-.77.33-.8.97-1.77,1.8-2.72.1-.13,0-.38-.21-.62-.21-.21-.46-.31-.56-.18-.82.97-1.49,1.98-1.82,2.8-.01.02-.02.05-.03.07-1.66,1.53-7.16,3.8-5.59.42.08,0,1.44-.15,2.64-.77.62-.31,1.13-.87,1.41-1.41.13-.26.23-.49.26-.72.05-.31-.05-.64-.31-.92-.18-.21-.38-.33-.62-.38-.28-.05-.97.26-1.72.77-.56.41-1.15.95-1.67,1.51-.47.54-.82,1.13-.97,1.72-.3.27-.64.58-1.05.95-.95.82-1.9,1.62-2.9,2.39s-1.74,1.31-2.28,1.62c-.74.36-1.23.46-1.49.31-.28-.15-.38-.44-.31-.9.05-.46.18-.95.41-1.46.23-.54.44-1,.67-1.41s.38-.67.46-.72c.03-.05.41-.33,1.1-.9.69-.56,1.54-1.26,2.54-2.13s1.95-1.8,2.85-2.77,1.59-1.9,2.03-2.72c.44-.87.59-1.51.46-1.87-.13-.41-.44-.69-.87-.82-.26-.1-.54-.1-.82,0-.9.26-1.8.97-2.69,2.21-.1.05-.56.67-1.39,1.85-.85,1.18-1.74,2.57-2.74,4.21-.64,1-1.21,2-1.67,2.95-.08.05-.15.13-.23.21-.95.8-1.92,1.59-2.95,2.36-1.05.77-1.82,1.31-2.36,1.62-.1.05-.26.1-.49.18-.23.05-.44.1-.64.13-.23.03-.38,0-.46-.1-.18-.44.03-1.28.56-2.57.54-1.28,1.31-2.77,2.28-4.41.03,0,.08-.03.1-.03.03-.03.41-.31,1.1-.87.69-.56,1.54-1.28,2.54-2.15,1-.87,1.95-1.8,2.85-2.77s1.59-1.87,2.03-2.69c.44-.87.56-1.51.44-1.87-.13-.41-.41-.69-.87-.85-.23-.08-.51-.08-.82.03-.87.26-1.77.97-2.67,2.21-.13.08-.67.82-1.67,2.26-1,1.44-2.08,3.13-3.28,5.08-.59.96-1.13,1.89-1.62,2.79-.84.68-3.09,2.46-3.17,1.95-.15-.72.15-1.39.21-1.51.08-.13-.03-.36-.21-.56-.23-.23-.46-.31-.56-.21,0,0-2.33,2.72-3.23,2.98.28-1.18.82-2.1,1.77-2.87.46-.38,1.72-.97,2.23-.49.1.23.36.46.56.51.21.05.28-.1.18-.36-.44-1.49-2.54-1.44-3.69-.49-.67.54-1.26,1.33-1.59,2.05-.15.33-.26.67-.28.97-.05.38.05.74.31,1.08.15.15.31.31.51.38.56.26,1.51-.54,2.44-1.41-.03,1.26.87,1.62,2.05,1,.38-.2.86-.57,1.5-1.1-.12.26-.25.52-.37.77-.77,1.69-1,2.82-.67,3.44.33.46.82.67,1.44.59s1.18-.26,1.67-.51c.54-.31,1.36-.85,2.41-1.67.67-.51,1.33-1.03,1.95-1.56l-.03.13c-.62,1.44-.77,2.44-.44,3.03.36.46.85.67,1.46.59.59-.08,1.15-.26,1.64-.51.54-.31,1.36-.85,2.41-1.67s2.08-1.64,3.05-2.49c.1-.09.18-.17.28-.25.15.66.59,1.25,1.18,1.59,1.27.72,3.67-.5,5.2-1.71.05.46.31.84.77,1.09.18.1.36.15.59.18.54.05,1.36-.49,2.15-1.18-.54.98-1.18,2.1-1.85,3.23-2.67.41-4.41,1.08-5.46,1.82-.69.49-1.08,1-1.26,1.51-.18.56-.08,1.15.21,1.67.51.9,1.54,1.54,2.72,1.56.87,0,2.8-2.8,4.51-5.69,2.9-.41,6.9-.51,12.34-.05.21,0,.23-.18.1-.41ZM88.62,173.42c.38-.28.72-.49,1-.62-.05.1-.08.18-.13.28-.28.49-.74,1.03-1.28,1.31-.41.18-.8.33-1.15.44.46-.54,1.05-1.03,1.56-1.41ZM82.77,170.04c.82-1.23,1.26-1.87,1.31-1.92.9-1.18,1.74-1.9,2.59-2.15.13-.05.26-.05.33-.05.08.31-.05.87-.44,1.64-.64,1.13-1.62,2.33-2.92,3.64-1.33,1.28-2.59,2.41-3.75,3.33,1.1-1.74,2.05-3.26,2.87-4.49ZM77.38,167.45c.82-1.23,1.26-1.87,1.31-1.92.9-1.18,1.74-1.9,2.59-2.15.13-.05.23-.05.33-.05.08.31-.08.87-.46,1.64-.62,1.13-1.59,2.33-2.92,3.64-1.33,1.28-2.57,2.41-3.72,3.33,1.1-1.74,2.05-3.26,2.87-4.49ZM88.95,185.79c-.72-.03-1.28-.28-1.51-.64-.13-.26-.18-.59-.05-1,.15-.44.51-.92,1.15-1.36.85-.62,2.18-1.15,4.1-1.56-1.49,2.46-3,4.57-3.69,4.57Z"/>
          <path class="cls-1" d="M97.28,172.91h0s0-.02,0-.03v.03Z"/>
          <path class="cls-1" d="M97.98,175.91c.21.21.51.05.62-.05l1.05-1.21c-.62,1.13-.38,1.15-.38,1.49.13.59.05,1.05-.13,1.41-.08.18-.23.36-.38.46-.15.13-.33.21-.51.23-.21.05-.41.05-.51,0-.05-.03.31-.67.31-.69.05-.13-.05-.41-.28-.62-.23-.21-.46-.26-.54-.13,0,.03-.8,1.46.67,2.21.28.15.64.21,1,.13.21-.05.41-.15.59-.28.18-.15.36-.33.49-.56.21-.44.28-1.03.13-1.77-.28-1.18.44-2.28.97-2.9l.62-.59c.1-.1,0-.38-.21-.59-.18-.23-.44-.33-.54-.23,0,0-.26.21-.59.56l-1.92,2.33c-.1.1-.64.56-.44.8Z"/>
        </g>
      </g>
    </g>
  </g>
</svg>