<?xml version="1.0" encoding="UTF-8"?>
<svg id="Layer_2" data-name="Layer 2" xmlns="http://www.w3.org/2000/svg" viewBox="0 0 184.18 95.7">
  <defs>
    <style>
      .cls-1 {
        fill: #ccc;
      }
    </style>
  </defs>
  <g id="Layer_1-2" data-name="Layer 1">
    <g>
      <path class="cls-1" d="M176.64,79.97v12.22h7.54l-.26,3.12h-10.92v-14.95c0-.65,3.08-.31,3.64-.39Z"/>
      <g>
        <path class="cls-1" d="M117.88,29.01c.12.48.23.92.27,1.42.33,4.24.39,12.21,0,16.4-.06.66-.12,1.26-.52,1.82l-24.98,15.85-.83.1c-3.4-2.27-6.94-4.3-10.4-6.47-.17-.11-.21-.4-.38-.51-4.83-3.02-9.88-5.77-14.49-9.11l-.09-32.32c.14-.47.88-.79,1.27-1.07,7.54-5.18,15.77-9.45,23.29-14.67l1.26-.46,25.18,15.73.16.54c-1.2.3-4.98,3.46-5.78,3.35l-18.66-11.78c-.61-.25-1.45-.25-2.06,0-1.46.6-4.22,2.91-5.76,3.85-4.32,2.65-8.84,5.1-12.83,8.23l-.09,24.77.48.56,18.36,11.54.98.3c4.67-2.62,9.08-5.65,13.58-8.53.71-.46,1.44-.91,2.1-1.34.71-.46,3.96-2.02,3.96-2.74v-8.58s-.36-.39-.39-.39h-15.86c-.32,0-.61,1.07-.66,1.42-.28,2.38,0,5.82,0,8.34,0,1.15.59,2.95-.52,3.88-.27.23-1.91,1.16-2.22,1.18-.33.02-2.45-.93-2.64-1.11-.82-.74-.31-2.11-.32-2.91-.03-3.01.33-7.06,0-9.9-.03-.26-.12-.9-.4-.9h-10.92s-.39-.36-.39-.39v-5.46c0-.09.34-.39.26-.65h11.05s.39-.36.39-.39v-12.74c0-.17,2.41-1.73,2.97-1.69.48.03,2.46,1.33,2.7,1.74.74,1.3.06,3.01.04,4.36-.05,2.86-.14,5.93.27,8.72h22.62Z"/>
        <path class="cls-1" d="M88.89,79.97c.74.21.56,1.38.72,1.88.75,2.45,1.39,5.01,2.2,7.43.1.29-.07.73.46.57.5-.15,2.2-8.83,3.12-9.88h4.68l.39,15.34h-3.64v-10.92l-3.13,10.91-3.21.03-3.28-11.2v11.18h-3.12v-15.34c1.28.23,3.7-.31,4.81,0Z"/>
        <path class="cls-1" d="M65.75,79.97l6.11,9.88v-9.49c0-.49,3.09-.72,3.34.04l.05,14.02c.06.27-.19.9-.4.9h-3.77l-6.24-10.92.26,10.92h-3.38v-15.34h4.03Z"/>
        <path class="cls-1" d="M14.4,84.65h-3.64c-.05,0-.06-.65-.33-.97-.72-.81-2.26-1.21-3.32-1-3.37.69-4.05,4.83-2.92,7.63,1.35,3.38,6.89,3.22,6.84-.73h-3.38s0-3.12,0-3.12h7.02c-.22,1.14.05,8.53-.26,8.84-.09.09-2.51.1-2.6,0-.11-.12.18-1.05-.13-1.05-2.25,1.67-5.85,1.87-8.27.48-4.96-2.86-4.38-12.34,1.05-14.46,3.67-1.43,9.63-.25,9.96,4.37Z"/>
        <path class="cls-1" d="M118.14,95.31v-15.34h7.41c.49,0,2.35.74,2.87,1.03,4.88,2.78,4.34,11.19-.68,13.63-.26.13-1.78.67-1.93.67h-7.67ZM121.78,83.09v9.1c3.79.27,6.24-.26,6.25-4.55s-2.56-4.84-6.25-4.55Z"/>
        <path class="cls-1" d="M26.23,79.97c4.03.63,5.85,5.91,1.95,7.93-.16.55.47.36.79.76,1.39,1.73.47,4.53,1.03,6.65h-3.64c-.58-1.22.43-5.72-1.43-5.72h-4.03v5.72h-3.38v-15.34c2.66.29,6.15-.4,8.71,0ZM20.9,86.47h4.81c1.09,0,1.38-3.38-.26-3.38h-4.55v3.38Z"/>
        <path class="cls-1" d="M115.28,83.09h-8.06v2.86h7.15c.07,0,.21-.31.39-.15.48.33.38,3.27-.13,3.27h-7.41v3.12h8.58l-.26,3.12h-11.96v-14.95s.36-.39.39-.39h11.18c.54,0-.08,2.5.13,3.12Z"/>
        <path class="cls-1" d="M44.56,79.97v3.12h-8.06v2.86h7.54c-.05.55.23,3.12-.39,3.12h-7.15v3.12h8.32c-.05.55.23,3.12-.39,3.12h-11.57v-14.95s.36-.39.39-.39h11.31Z"/>
        <path class="cls-1" d="M59.12,83.09h-8.06c-.15,0-.59,2.86.13,2.86h7.41c-.05.55.23,3.12-.39,3.12h-7.41c.05.55-.23,3.12.39,3.12h8.19l-.26,3.12h-11.7v-14.69s-.45-.65.13-.65h11.18c.62,0,.34,2.57.39,3.12Z"/>
        <path class="cls-1" d="M171.44,95.31h-3.9l-1.07-3.35c-.9.06-5.99-.25-6.24.12-.33.49-.65,2.52-1.01,3.23h-3.64l5.84-15.36c.94.2,3.6-.32,4.18.27l5.84,15.09ZM165.46,88.81l-2.21-5.72-1.95,5.72h4.16Z"/>
        <path class="cls-1" d="M155.06,84.91c-.64-.22-3.11.26-3.4.13-.72-.33-.77-1.93-2.74-2.18-6.34-.82-6.04,10.62-.05,9.81,2.06-.28,2.12-2.05,2.71-2.25.85-.28,2.5.11,3.47-.04-1.27,6.72-11.49,7.11-13.88,1.01-1.44-3.67-.49-9.11,3.38-10.86,4.21-1.9,9.56-.46,10.5,4.39Z"/>
        <path class="cls-1" d="M137.9,79.97v15.34h-3.64v-14.95c0-.65,3.08-.31,3.64-.39Z"/>
      </g>
    </g>
  </g>
</svg>