<?xml version="1.0" encoding="UTF-8"?>
<svg id="Layer_2" data-name="Layer 2" xmlns="http://www.w3.org/2000/svg" viewBox="0 0 360.77 155.12">
  <defs>
    <style>
      .cls-1, .cls-2 {
        fill: #ccc;
      }

      .cls-2 {
        font-family: Poppins-Bold, Poppins;
        font-size: 63px;
        font-weight: 700;
      }
    </style>
  </defs>
  <g id="Layer_1-2" data-name="Layer 1">
    <path class="cls-1" d="M0,0v132h132V0H0ZM85.45,46.37l-.06,13.34-6.49,6.49,33.75,33.71-13.37,13.39-33.74-33.75-33.77,33.75-13.31-13.23,33.62-33.81-.03-.2-6.39-6.42-.03-13.2-4.67-4.67v10.97s-.21.03-.25.12c-1.45,1.49-2.93,2.93-4.4,4.4l-16.54-16.67-4.6,4.44c.02-2.39.4-4.83,1.03-7.14,3.32-12.22,15.41-24.5,27.91-14.47l16.55,16.54.04.21-3.74,3.72-.07.24,8.59,8.6,8.74-8.54-3.93-4.13,16.29-16.3c13.98-11.63,27.34,4.31,29.1,18.06.14,1.07.16,2.14.26,3.21l-4.55-4.43-16.68,16.66-4.56-4.56v-10.93c-1.64,1.43-3.15,3.02-4.67,4.58Z"/>
    <text class="cls-2" transform="translate(141.65 56.94)"><tspan x="0" y="0">HEAD </tspan><tspan x="0" y="60">OFFICE</tspan></text>
  </g>
</svg>