<?xml version="1.0" encoding="UTF-8"?>
<svg id="Layer_2" data-name="Layer 2" xmlns="http://www.w3.org/2000/svg" viewBox="0 0 357.69 132">
  <defs>
    <style>
      .cls-1 {
        fill: #ccc;
      }
    </style>
  </defs>
  <g id="Layer_1-2" data-name="Layer 1">
    <g>
      <path class="cls-1" d="M0,0v132h132V0H0ZM85.45,46.37l-.06,13.34-6.49,6.49,33.75,33.71-13.37,13.39-33.74-33.75-33.77,33.75-13.31-13.23,33.62-33.81-.03-.2-6.39-6.42-.03-13.2-4.67-4.67v10.97s-.21.03-.25.12c-1.45,1.49-2.93,2.93-4.4,4.4l-16.54-16.67-4.6,4.44c.02-2.39.4-4.83,1.03-7.14,3.32-12.22,15.41-24.5,27.91-14.47l16.55,16.54.04.21-3.74,3.72-.07.24,8.59,8.6,8.74-8.54-3.93-4.13,16.29-16.3c13.98-11.63,27.34,4.31,29.1,18.06.14,1.07.16,2.14.26,3.21l-4.55-4.43-16.68,16.66-4.56-4.56v-10.93c-1.64,1.43-3.15,3.02-4.67,4.58Z"/>
      <g>
        <path class="cls-1" d="M183.86,12.71v44.23h-10.77v-18.21h-16.76v18.21h-10.77V12.71h10.77v17.33h16.76V12.71h10.77Z"/>
        <path class="cls-1" d="M202.39,21.35v8.95h14.43v8.32h-14.43v9.7h16.32v8.63h-27.09V12.71h27.09v8.63h-16.32Z"/>
        <path class="cls-1" d="M253.23,49.13h-16.51l-2.65,7.81h-11.28l16-44.23h12.47l16,44.23h-11.4l-2.65-7.81ZM250.46,40.81l-5.48-16.19-5.42,16.19h10.9Z"/>
        <path class="cls-1" d="M300.92,15.49c3.49,1.85,6.18,4.44,8.1,7.78,1.91,3.34,2.87,7.19,2.87,11.56s-.96,8.17-2.87,11.53c-1.91,3.36-4.62,5.96-8.13,7.81-3.51,1.85-7.57,2.77-12.19,2.77h-16.57V12.71h16.57c4.66,0,8.74.92,12.22,2.77ZM297.52,44.28c2.27-2.23,3.4-5.38,3.4-9.45s-1.13-7.25-3.4-9.51-5.44-3.4-9.51-3.4h-5.1v25.71h5.1c4.07,0,7.25-1.11,9.51-3.34Z"/>
        <path class="cls-1" d="M155.04,114.48c-3.46-1.93-6.22-4.63-8.25-8.1-2.04-3.46-3.06-7.36-3.06-11.69s1.02-8.21,3.06-11.66c2.04-3.44,4.79-6.13,8.25-8.06s7.28-2.9,11.43-2.9,7.97.97,11.44,2.9,6.19,4.62,8.19,8.06c1.99,3.45,2.99,7.33,2.99,11.66s-1.01,8.22-3.02,11.69c-2.02,3.46-4.75,6.16-8.19,8.1-3.45,1.93-7.25,2.9-11.4,2.9s-7.97-.97-11.43-2.9ZM174.95,104.03c2.12-2.35,3.18-5.46,3.18-9.32s-1.06-7.03-3.18-9.36c-2.12-2.33-4.95-3.5-8.47-3.5s-6.42,1.16-8.54,3.46c-2.12,2.31-3.18,5.44-3.18,9.39s1.06,7.02,3.18,9.36c2.12,2.33,4.97,3.5,8.54,3.5s6.35-1.17,8.47-3.53Z"/>
        <path class="cls-1" d="M223.87,72.71v8.63h-18.02v9.32h13.48v8.38h-13.48v17.89h-10.77v-44.23h28.79Z"/>
        <path class="cls-1" d="M258.33,72.71v8.63h-18.02v9.32h13.48v8.38h-13.48v17.89h-10.77v-44.23h28.79Z"/>
        <path class="cls-1" d="M274.78,72.71v44.23h-10.77v-44.23h10.77Z"/>
        <path class="cls-1" d="M283.6,83.08c1.89-3.42,4.53-6.09,7.91-8,3.38-1.91,7.21-2.87,11.5-2.87,5.25,0,9.74,1.39,13.48,4.16s6.24,6.55,7.5,11.34h-11.84c-.88-1.85-2.13-3.25-3.75-4.22-1.62-.97-3.46-1.45-5.51-1.45-3.32,0-6.01,1.16-8.06,3.47-2.06,2.31-3.09,5.4-3.09,9.26s1.03,6.95,3.09,9.26c2.06,2.31,4.75,3.46,8.06,3.46,2.06,0,3.9-.48,5.51-1.45,1.62-.97,2.87-2.37,3.75-4.22h11.84c-1.26,4.79-3.76,8.56-7.5,11.31s-8.23,4.13-13.48,4.13c-4.28,0-8.12-.96-11.5-2.87-3.38-1.91-6.02-4.57-7.91-7.97-1.89-3.4-2.83-7.29-2.83-11.66s.95-8.26,2.83-11.69Z"/>
        <path class="cls-1" d="M341.37,81.35v8.95h14.43v8.32h-14.43v9.7h16.32v8.63h-27.09v-44.23h27.09v8.63h-16.32Z"/>
      </g>
    </g>
  </g>
</svg>