<?xml version="1.0" encoding="UTF-8"?>
<svg id="Layer_2" data-name="Layer 2" xmlns="http://www.w3.org/2000/svg" viewBox="0 0 172.2 48.18">
  <defs>
    <style>
      .cls-1 {
        fill: #b3b3b3;
      }
    </style>
  </defs>
  <g id="Layer_1-2" data-name="Layer 1">
    <g>
      <path class="cls-1" d="M17.57,19.64h-4.78L4.78,7.52v12.11H0V0h4.78l8,12.17V0h4.78v19.64Z"/>
      <path class="cls-1" d="M35.66,12.98h-10.83c.07.97.39,1.71.94,2.22.55.51,1.23.77,2.03.77,1.19,0,2.02-.5,2.49-1.51h5.09c-.26,1.03-.73,1.95-1.41,2.77s-1.53,1.46-2.56,1.93c-1.03.47-2.17.7-3.44.7-1.53,0-2.89-.33-4.08-.98-1.19-.65-2.13-1.58-2.8-2.8-.67-1.21-1.01-2.63-1.01-4.25s.33-3.04.99-4.25c.66-1.21,1.59-2.14,2.78-2.8,1.19-.65,2.56-.98,4.11-.98s2.85.32,4.03.95,2.09,1.54,2.76,2.71c.66,1.17.99,2.55.99,4.11,0,.45-.03.91-.08,1.4ZM30.85,10.32c0-.82-.28-1.47-.84-1.96-.56-.49-1.26-.73-2.1-.73s-1.48.23-2.03.7c-.55.47-.89,1.13-1.02,1.99h5.99Z"/>
      <path class="cls-1" d="M60.67,4.03l-4.22,15.61h-5.29l-2.46-10.13-2.55,10.13h-5.26l-4.25-15.61h4.78l2.21,11.16,2.63-11.16h5.06l2.66,11.1,2.18-11.1h4.5Z"/>
      <path class="cls-1" d="M79.8,19.64l-6.6-8.67v8.67h-4.78V0h4.78v8.62l6.55-8.62h5.62l-7.61,9.62,7.89,10.01h-5.85Z"/>
      <path class="cls-1" d="M90.9,18.88c-1.22-.65-2.18-1.58-2.88-2.8-.7-1.21-1.05-2.63-1.05-4.25s.35-3.02,1.06-4.24c.71-1.22,1.68-2.16,2.91-2.81,1.23-.65,2.61-.98,4.14-.98s2.91.33,4.14.98c1.23.65,2.2,1.59,2.91,2.81.71,1.22,1.06,2.63,1.06,4.24s-.36,3.02-1.08,4.24c-.72,1.22-1.7,2.16-2.94,2.81-1.24.65-2.62.98-4.15.98s-2.9-.33-4.13-.98ZM97.36,14.71c.64-.67.97-1.63.97-2.88s-.31-2.21-.94-2.88c-.63-.67-1.39-1.01-2.31-1.01s-1.71.33-2.32.99c-.62.66-.92,1.63-.92,2.89s.3,2.21.91,2.88c.61.67,1.37,1.01,2.28,1.01s1.69-.34,2.34-1.01Z"/>
      <path class="cls-1" d="M108.45,19.16c-1.06-.47-1.9-1.1-2.52-1.92-.62-.81-.96-1.72-1.04-2.73h4.73c.06.54.31.98.75,1.31.45.34,1,.5,1.65.5.6,0,1.06-.12,1.38-.35.33-.23.49-.54.49-.91,0-.45-.23-.78-.7-.99-.47-.21-1.22-.45-2.27-.71-1.12-.26-2.05-.54-2.8-.83-.75-.29-1.39-.75-1.93-1.37-.54-.62-.81-1.47-.81-2.53,0-.9.25-1.71.74-2.45s1.22-1.32,2.18-1.75c.96-.43,2.1-.64,3.43-.64,1.96,0,3.5.49,4.63,1.45,1.13.97,1.78,2.26,1.94,3.86h-4.42c-.07-.54-.31-.97-.71-1.29-.4-.32-.93-.48-1.58-.48-.56,0-.99.11-1.29.32-.3.21-.45.51-.45.88,0,.45.24.78.71,1.01s1.22.45,2.22.67c1.16.3,2.1.59,2.83.88.73.29,1.37.75,1.92,1.4.55.64.83,1.51.85,2.59,0,.91-.26,1.73-.77,2.45s-1.25,1.28-2.21,1.69c-.96.41-2.07.62-3.34.62-1.36,0-2.57-.23-3.64-.7Z"/>
      <path class="cls-1" d="M124.32,18.88c-1.22-.65-2.18-1.58-2.88-2.8-.7-1.21-1.05-2.63-1.05-4.25s.35-3.02,1.06-4.24c.71-1.22,1.68-2.16,2.91-2.81,1.23-.65,2.61-.98,4.14-.98s2.91.33,4.14.98c1.23.65,2.2,1.59,2.91,2.81.71,1.22,1.06,2.63,1.06,4.24s-.36,3.02-1.08,4.24c-.72,1.22-1.7,2.16-2.94,2.81-1.24.65-2.62.98-4.15.98s-2.9-.33-4.13-.98ZM130.78,14.71c.64-.67.97-1.63.97-2.88s-.31-2.21-.94-2.88c-.63-.67-1.39-1.01-2.31-1.01s-1.71.33-2.32.99c-.62.66-.92,1.63-.92,2.89s.3,2.21.91,2.88c.61.67,1.37,1.01,2.28,1.01s1.69-.34,2.34-1.01Z"/>
      <path class="cls-1" d="M146.18,15.16l3.38-11.13h5.09l-5.54,15.61h-5.9l-5.54-15.61h5.12l3.38,11.13Z"/>
      <path class="cls-1" d="M156.63,7.58c.61-1.21,1.43-2.14,2.48-2.8,1.04-.65,2.21-.98,3.5-.98,1.1,0,2.06.22,2.9.67.83.45,1.47,1.04,1.92,1.76v-2.21h4.78v15.61h-4.78v-2.21c-.47.73-1.11,1.31-1.94,1.76-.83.45-1.8.67-2.9.67-1.27,0-2.42-.33-3.47-.99-1.04-.66-1.87-1.6-2.48-2.83-.61-1.22-.91-2.63-.91-4.24s.3-3.01.91-4.22ZM166.42,9.01c-.66-.69-1.47-1.03-2.42-1.03s-1.76.34-2.42,1.02c-.66.68-.99,1.62-.99,2.81s.33,2.14.99,2.84c.66.7,1.47,1.05,2.42,1.05s1.76-.34,2.42-1.04c.66-.69.99-1.63.99-2.83s-.33-2.13-.99-2.83Z"/>
    </g>
    <g>
      <path class="cls-1" d="M17.23,37.76c-.52.94-1.32,1.7-2.41,2.28-1.08.58-2.42.87-4.03.87h-2.96v7.05H3.05v-19.64h7.75c1.57,0,2.89.27,3.97.81s1.89,1.29,2.43,2.24c.54.95.81,2.04.81,3.27,0,1.14-.26,2.18-.78,3.12ZM12.47,36.46c.45-.43.67-1.03.67-1.82s-.22-1.39-.67-1.82c-.45-.43-1.13-.64-2.04-.64h-2.6v4.92h2.6c.91,0,1.59-.21,2.04-.64Z"/>
      <path class="cls-1" d="M23.48,47.2c-1.22-.65-2.18-1.58-2.88-2.8-.7-1.21-1.05-2.63-1.05-4.25s.35-3.02,1.06-4.24c.71-1.22,1.68-2.16,2.91-2.81,1.23-.65,2.61-.98,4.14-.98s2.91.33,4.14.98c1.23.65,2.2,1.59,2.91,2.81.71,1.22,1.06,2.63,1.06,4.24s-.36,3.02-1.08,4.24c-.72,1.22-1.7,2.16-2.94,2.81-1.24.65-2.62.98-4.15.98s-2.9-.33-4.13-.98ZM29.94,43.03c.64-.67.97-1.63.97-2.88s-.31-2.21-.94-2.88c-.63-.67-1.39-1.01-2.31-1.01s-1.71.33-2.32.99c-.62.66-.92,1.63-.92,2.89s.3,2.21.91,2.88c.61.67,1.37,1.01,2.28,1.01s1.69-.34,2.34-1.01Z"/>
      <path class="cls-1" d="M60.73,32.35l-4.22,15.61h-5.29l-2.46-10.13-2.55,10.13h-5.26l-4.25-15.61h4.78l2.21,11.16,2.63-11.16h5.06l2.66,11.1,2.18-11.1h4.5Z"/>
      <path class="cls-1" d="M77.17,41.3h-10.83c.07.97.39,1.71.94,2.22.55.51,1.23.77,2.03.77,1.19,0,2.02-.5,2.49-1.51h5.09c-.26,1.03-.73,1.95-1.41,2.77s-1.53,1.46-2.56,1.93c-1.03.47-2.17.7-3.44.7-1.53,0-2.89-.33-4.08-.98-1.19-.65-2.13-1.58-2.8-2.8-.67-1.21-1.01-2.63-1.01-4.25s.33-3.04.99-4.25c.66-1.21,1.59-2.14,2.78-2.8,1.19-.65,2.56-.98,4.11-.98s2.85.32,4.03.95,2.09,1.54,2.76,2.71c.66,1.17.99,2.55.99,4.11,0,.45-.03.91-.08,1.4ZM72.36,38.64c0-.82-.28-1.47-.84-1.96-.56-.49-1.26-.73-2.1-.73s-1.48.23-2.03.7c-.55.47-.89,1.13-1.02,1.99h5.99Z"/>
      <path class="cls-1" d="M86.66,32.92c.84-.49,1.77-.74,2.8-.74v5.06h-1.31c-1.19,0-2.09.26-2.69.77-.6.51-.9,1.41-.9,2.7v7.25h-4.78v-15.61h4.78v2.6c.56-.86,1.26-1.53,2.1-2.03Z"/>
      <path class="cls-1" d="M111.86,37.76c-.52.94-1.32,1.7-2.41,2.28-1.08.58-2.42.87-4.03.87h-2.96v7.05h-4.78v-19.64h7.75c1.57,0,2.89.27,3.97.81s1.89,1.29,2.43,2.24c.54.95.81,2.04.81,3.27,0,1.14-.26,2.18-.78,3.12ZM107.1,36.46c.45-.43.67-1.03.67-1.82s-.22-1.39-.67-1.82c-.45-.43-1.13-.64-2.04-.64h-2.6v4.92h2.6c.91,0,1.59-.21,2.04-.64Z"/>
      <path class="cls-1" d="M119.91,27.26v20.7h-4.78v-20.7h4.78Z"/>
      <path class="cls-1" d="M123.34,35.9c.61-1.21,1.43-2.14,2.48-2.8,1.04-.65,2.21-.98,3.5-.98,1.1,0,2.06.22,2.9.67.83.45,1.47,1.04,1.92,1.76v-2.21h4.78v15.61h-4.78v-2.21c-.47.73-1.11,1.31-1.94,1.76-.83.45-1.8.67-2.9.67-1.27,0-2.42-.33-3.47-.99-1.04-.66-1.87-1.6-2.48-2.83-.61-1.22-.91-2.63-.91-4.24s.3-3.01.91-4.22ZM133.13,37.33c-.66-.69-1.47-1.03-2.42-1.03s-1.76.34-2.42,1.02c-.66.68-.99,1.62-.99,2.81s.33,2.14.99,2.84c.66.7,1.47,1.05,2.42,1.05s1.76-.34,2.42-1.04c.66-.69.99-1.63.99-2.83s-.33-2.13-.99-2.83Z"/>
      <path class="cls-1" d="M156.26,33.96c1.09,1.18,1.64,2.81,1.64,4.88v9.12h-4.76v-8.48c0-1.04-.27-1.86-.81-2.43-.54-.58-1.27-.87-2.18-.87s-1.64.29-2.18.87c-.54.58-.81,1.39-.81,2.43v8.48h-4.78v-15.61h4.78v2.07c.48-.69,1.14-1.24,1.96-1.64.82-.4,1.74-.6,2.77-.6,1.83,0,3.29.59,4.38,1.78Z"/>
      <path class="cls-1" d="M169.93,43.9v4.06h-2.43c-1.73,0-3.09-.42-4.06-1.27s-1.45-2.23-1.45-4.15v-6.21h-1.9v-3.97h1.9v-3.8h4.78v3.8h3.13v3.97h-3.13v6.27c0,.47.11.8.34,1.01s.6.31,1.12.31h1.71Z"/>
    </g>
  </g>
</svg>