<?xml version="1.0" encoding="UTF-8"?>
<svg id="Layer_2" data-name="Layer 2" xmlns="http://www.w3.org/2000/svg" viewBox="0 0 362.88 95.41">
  <defs>
    <style>
      .cls-1 {
        fill: red;
        opacity: .48;
      }

      .cls-2, .cls-3 {
        fill: #ccc;
      }

      .cls-3 {
        stroke: #ccc;
        stroke-miterlimit: 10;
      }
    </style>
  </defs>
  <g id="Layer_1-2" data-name="Layer 1">
    <g>
      <g>
        <g>
          <path class="cls-1" d="M54.67,54.4S55.81,4.18,0,0c9.47,44.64,24.42,47.99,54.67,54.4Z"/>
          <path class="cls-1" d="M3.06,23.15s15.91,34.04,51.62,34.32c.56,36.27,0,37.94,0,37.94,0,0-42.97-26.78-51.62-72.26Z"/>
          <path class="cls-1" d="M58.17,54.4S57.03,4.18,112.84,0c-9.47,44.64-24.42,47.99-54.67,54.4Z"/>
          <path class="cls-1" d="M109.78,23.15s-15.91,34.04-51.62,34.32c-.56,36.27,0,37.94,0,37.94,0,0,42.97-26.78,51.62-72.26Z"/>
        </g>
        <g>
          <path class="cls-2" d="M54.67,54.4S55.81,4.18,0,0c9.47,44.64,24.42,47.99,54.67,54.4Z"/>
          <path class="cls-2" d="M3.06,23.15s15.91,34.04,51.62,34.32c.56,36.27,0,37.94,0,37.94,0,0-42.97-26.78-51.62-72.26Z"/>
          <path class="cls-2" d="M58.17,54.4S57.03,4.18,112.84,0c-9.47,44.64-24.42,47.99-54.67,54.4Z"/>
          <path class="cls-2" d="M109.78,23.15s-15.91,34.04-51.62,34.32c-.56,36.27,0,37.94,0,37.94,0,0,42.97-26.78,51.62-72.26Z"/>
        </g>
      </g>
      <path class="cls-3" d="M149.91,81.66c-.76,2.31-14.97.49-18.15,1.07V6.94c26.65-3.53,35.99,27.88,51.23,43.77l1.08-44.83c.96.11.91.48,0,1.07-.15,6.71.2,6.71,1.07,0,5.11-.52,10.45-.87,16.01-1.07,3.64,1.24-.56,68.56,1.06,76.85-28-.87-35.98-28.67-52.3-45.9v44.83Z"/>
      <path class="cls-3" d="M362.34,79.52c-8.09-22.09-16.32-51.14-26.69-71.52l-.56-1.13c-6.89-.77-13.9-.86-20.79.07-8.42,23.65-19.1,47.68-26.69,71.52l.23,2.92,10.44.28c5-1.49,12.31-8.8,12.81-13.88l-.35-.77c9.48-.11,18.85.14,28.1.77,4.44,7.68,1.88,9.37,11.74,12.81,4.05,1.18,7.98,1.35,11.77.5l-.03-1.57ZM317.51,50.7l6.42-20.28c1.63-1.27,7.58,18.76,8.53,20.28h-14.94Z"/>
      <path class="cls-3" d="M243.88,5.28c-44.43,6.49-45.41,69-2.17,77.45h14.94c49.84-9.74,37.07-84.73-12.78-77.45ZM248.78,68.09c-12.82,0-23.2-10.39-23.2-23.2s10.39-23.2,23.2-23.2,23.2,10.39,23.2,23.2-10.39,23.2-23.2,23.2Z"/>
    </g>
  </g>
</svg>