<?xml version="1.0" encoding="UTF-8"?>
<svg id="Layer_2" data-name="Layer 2" xmlns="http://www.w3.org/2000/svg" viewBox="0 0 105.53 162.75">
  <defs>
    <style>
      .cls-1 {
        font-family: Poppins-Medium, Poppins;
        font-weight: 500;
      }

      .cls-1, .cls-2 {
        font-size: 16.16px;
      }

      .cls-1, .cls-2, .cls-3 {
        fill: #ccc;
      }

      .cls-2 {
        font-family: Poppins-Thin, Poppins;
        font-weight: 200;
      }
    </style>
  </defs>
  <g id="Layer_1-2" data-name="Layer 1">
    <path class="cls-3" d="M81.04,0l-.02,25.29,18.02,13.71v94c-2.37,1.4-6.58,2.08-7-1.5l-.02-85.98c-.59-2.99-8.28-7.41-10.98-9.52v82h-8V14l-38.51,21.99v12.01c9.59-5.58,19.19-12.28,29.51-15.99v86h-9V46l-31.51,17.99c-.84,1.74-.78,7.45-.49,9.53.19,1.38-.56,1.73,1.48,1.47l21.52-11.99v55h-8v-41c-7.3,3.56-14.74,7.6-21.67,11.83-2.85,1.74-5.96,3.24-8.33,5.67v39.5L.04,133v-45c2.4-.53,13.32-6.15,13.84-7.66l.14-20.63,12.03-7.41.47-21.31L80.04,0h1Z"/>
    <text class="cls-2" transform="translate(20.99 134.23)"><tspan x="0" y="0">PRISTINA </tspan></text>
    <text class="cls-1" transform="translate(0 153.35)"><tspan x="0" y="0">CITY </tspan></text>
    <text class="cls-1" transform="translate(40.92 153.2)"><tspan x="0" y="0">CENTRE </tspan></text>
  </g>
</svg>