<?xml version="1.0" encoding="UTF-8"?>
<svg id="Layer_2" data-name="Layer 2" xmlns="http://www.w3.org/2000/svg" viewBox="0 0 100.24 153.44">
  <defs>
    <style>
      .cls-1 {
        fill: #ccc;
      }
    </style>
  </defs>
  <g id="Layer_1-2" data-name="Layer 1">
    <g>
      <path class="cls-1" d="M81,0l-.02,25.29,18.02,13.71v94c-2.37,1.4-6.58,2.08-7-1.5l-.02-85.98c-.59-2.99-8.28-7.41-10.98-9.52v82h-8V14l-38.51,21.99v12.01c9.59-5.58,19.19-12.28,29.51-15.99v86h-9V46l-31.51,17.99c-.84,1.74-.78,7.45-.49,9.53.19,1.38-.56,1.73,1.48,1.47l21.52-11.99v55h-8v-41c-7.3,3.56-14.74,7.6-21.67,11.83-2.85,1.74-5.96,3.24-8.33,5.67v39.5l-8-1v-45c2.4-.53,13.32-6.15,13.84-7.66l.14-20.63,12.03-7.41.47-21.31L80,0h1Z"/>
      <g>
        <path class="cls-1" d="M27.92,128.33c-.61.52-1.52.78-2.71.78h-2.55v5.12h-.32v-11.38h2.88c1.25,0,2.17.27,2.75.82.59.55.88,1.32.88,2.31,0,1.04-.31,1.83-.92,2.34ZM27.74,128.04c.52-.48.78-1.17.78-2.05s-.26-1.63-.78-2.1c-.52-.47-1.36-.71-2.54-.71h-2.55v5.59h2.55c1.16,0,2.01-.24,2.53-.73Z"/>
        <path class="cls-1" d="M37.09,134.23l-3.04-4.96h-2.86v4.96h-.32v-11.38h2.84c1.25,0,2.18.29,2.79.86s.91,1.35.91,2.34c0,.92-.26,1.65-.78,2.2-.52.55-1.26.88-2.21.99l3.07,4.99h-.4ZM33.74,128.96c1.11,0,1.94-.26,2.5-.79.55-.53.83-1.23.83-2.12,0-1.92-1.12-2.88-3.36-2.88h-2.52v5.79h2.55Z"/>
        <path class="cls-1" d="M39.83,122.85v11.38h-.32v-11.38h.32Z"/>
        <path class="cls-1" d="M43.82,133.95c-.53-.26-.95-.6-1.24-1.03s-.46-.89-.52-1.38h.32c.05.38.19.75.41,1.13.22.38.57.7,1.05.97.48.27,1.1.4,1.85.4.6,0,1.14-.12,1.6-.35.46-.23.82-.54,1.07-.93.25-.39.37-.82.37-1.29,0-.61-.14-1.1-.42-1.46-.28-.36-.63-.63-1.04-.8-.42-.17-.97-.35-1.67-.53-.73-.19-1.32-.39-1.76-.58-.44-.19-.82-.49-1.12-.9-.31-.4-.46-.95-.46-1.64,0-.5.14-.96.41-1.4.27-.44.67-.78,1.18-1.04s1.1-.39,1.75-.39,1.24.12,1.73.36c.48.24.86.54,1.14.9.27.36.46.74.54,1.14h-.32c-.08-.31-.23-.63-.47-.95-.24-.32-.58-.6-1.02-.82-.44-.22-.98-.33-1.6-.33-.55,0-1.05.1-1.51.32-.46.21-.82.51-1.1.89-.27.38-.41.83-.41,1.33,0,.62.14,1.12.43,1.49.29.37.64.65,1.06.82.42.18.98.36,1.68.54.73.19,1.32.38,1.75.57.44.19.81.48,1.11.87.3.39.45.93.45,1.61,0,.47-.13.93-.38,1.37-.25.44-.63.8-1.14,1.07s-1.12.41-1.84.41-1.35-.13-1.88-.39Z"/>
        <path class="cls-1" d="M57.14,122.85v.29h-3.31v11.08h-.32v-11.08h-3.31v-.29h6.95Z"/>
        <path class="cls-1" d="M59.16,122.85v11.38h-.32v-11.38h.32Z"/>
        <path class="cls-1" d="M69.61,134.23h-.32l-7.06-10.78v10.78h-.32v-11.36h.32l7.06,10.76v-10.76h.32v11.36Z"/>
        <path class="cls-1" d="M78.66,131.09h-5.62l-1.2,3.13h-.37l4.22-11.04h.32l4.2,11.04h-.37l-1.18-3.13ZM78.55,130.8l-2.7-7.09-2.7,7.09h5.4Z"/>
      </g>
      <g>
        <path class="cls-1" d="M1.33,144.75c.51-.87,1.21-1.55,2.08-2.04.88-.49,1.84-.74,2.88-.74,1.2,0,2.26.29,3.19.88.93.59,1.61,1.42,2.03,2.5h-2.21c-.29-.59-.69-1.03-1.21-1.33-.52-.29-1.11-.44-1.79-.44-.74,0-1.41.17-1.99.5-.58.33-1.04.81-1.37,1.44-.33.62-.49,1.35-.49,2.18s.16,1.56.49,2.18.78,1.11,1.37,1.45c.58.34,1.24.51,1.99.51.68,0,1.28-.15,1.79-.44.52-.29.92-.73,1.21-1.32h2.21c-.42,1.08-1.1,1.91-2.03,2.49-.93.58-2,.87-3.19.87-1.06,0-2.02-.25-2.89-.74-.87-.49-1.56-1.17-2.08-2.04-.51-.87-.77-1.86-.77-2.96s.26-2.08.77-2.96Z"/>
        <path class="cls-1" d="M15.51,142.12v11.23h-1.84v-11.23h1.84Z"/>
        <path class="cls-1" d="M25.19,142.12v1.5h-2.99v9.73h-1.84v-9.73h-3.01v-1.5h7.84Z"/>
        <path class="cls-1" d="M35.37,142.12l-3.72,7.16v4.07h-1.84v-4.07l-3.73-7.16h2.05l2.6,5.51,2.6-5.51h2.04Z"/>
      </g>
      <g>
        <path class="cls-1" d="M42.25,144.6c.51-.87,1.21-1.55,2.08-2.04.88-.49,1.84-.74,2.88-.74,1.2,0,2.26.29,3.19.88.93.59,1.61,1.42,2.03,2.5h-2.21c-.29-.59-.69-1.03-1.21-1.33-.52-.29-1.11-.44-1.79-.44-.74,0-1.41.17-1.99.5-.58.33-1.04.81-1.37,1.44-.33.62-.49,1.35-.49,2.18s.16,1.56.49,2.18.78,1.11,1.37,1.45c.58.34,1.24.51,1.99.51.68,0,1.28-.15,1.79-.44.52-.29.92-.73,1.21-1.32h2.21c-.42,1.08-1.1,1.91-2.03,2.49-.93.58-2,.87-3.19.87-1.06,0-2.02-.25-2.89-.74-.87-.49-1.56-1.17-2.08-2.04-.51-.87-.77-1.86-.77-2.96s.26-2.08.77-2.96Z"/>
        <path class="cls-1" d="M56.43,143.46v3.3h3.88v1.5h-3.88v3.44h4.36v1.5h-6.21v-11.25h6.21v1.5h-4.36Z"/>
        <path class="cls-1" d="M72.29,153.2h-1.84l-5.54-8.39v8.39h-1.84v-11.25h1.84l5.54,8.37v-8.37h1.84v11.25Z"/>
        <path class="cls-1" d="M81.96,141.97v1.5h-2.99v9.73h-1.84v-9.73h-3.01v-1.5h7.84Z"/>
        <path class="cls-1" d="M89.66,153.2l-2.59-4.49h-1.41v4.49h-1.84v-11.23h3.88c.86,0,1.59.15,2.19.45.6.3,1.04.71,1.34,1.21.3.51.44,1.07.44,1.7,0,.73-.21,1.4-.64,2-.43.6-1.08,1-1.96,1.22l2.78,4.65h-2.2ZM85.67,147.24h2.04c.69,0,1.21-.17,1.56-.52s.53-.81.53-1.39-.17-1.04-.52-1.37c-.35-.33-.87-.49-1.57-.49h-2.04v3.76Z"/>
        <path class="cls-1" d="M95.88,143.46v3.3h3.88v1.5h-3.88v3.44h4.36v1.5h-6.21v-11.25h6.21v1.5h-4.36Z"/>
      </g>
    </g>
  </g>
</svg>