<?xml version="1.0" encoding="UTF-8"?>
<svg id="Layer_2" data-name="Layer 2" xmlns="http://www.w3.org/2000/svg" viewBox="0 0 229.76 99.26">
  <defs>
    <style>
      .cls-1 {
        fill: #ccc;
      }
    </style>
  </defs>
  <g id="Layer_1-2" data-name="Layer 1-2">
    <path class="cls-1" d="M16.23.11l197.48-.11c7.8,1.3,14.65,8.56,15.54,16.48-.76,16.69,1.35,34.84.11,51.36-.71,9.41-8.12,16.67-17.47,17.43l-193.25.02c-8.74-.57-15.4-5.87-17.7-14.33.18-17.16-1.81-36.49-.47-53.52C1.17,8.54,7.78,2.04,16.23.11ZM82.46,8.76c-26.01,2.52-37.42,35.48-21.15,55.11,16.85,20.33,47.86,12.82,54.78-12.13,6.09-21.95-10.05-45.27-33.63-42.98ZM50.86,14.79C38.44,6.29,15.61,6.13,10.56,23.22c-2.64,8.92-.66,17.22,7.91,21.61,4.8,2.46,12.62,3.24,16.55,6.12,3.15,2.31,2.94,7.59-.22,9.81-4.89,3.44-11.2.71-15.41-2.47-1.81-1.37-3.28-3.26-5.04-4.67l-7.75,12.8c-.08.44.09.74.35,1.08.4.52,3.47,2.8,4.23,3.33,16.93,11.69,44.31,4.82,42.57-19.18-.61-8.36-4.57-12.42-12.04-15.3-4.14-1.6-19.85-3.85-14.73-11.12,2.39-3.4,8.12-2.99,11.55-1.53l6.95,4.02,5.39-12.93h0ZM130.39,10.81h-17.99l17.65,63.67,16.72-.34,9.89-33.83,9.4,34.14,15.99.06,18.52-63.71h-17.99l-9,38.49-9.88-38.14c-.26-.4-.67-.32-1.07-.37-4.05-.51-9.12.43-13.29,0l-10.12,38.52-8.82-38.5h-.01ZM219.27,10.81h-16.55v63.68h16.55V10.81Z"/>
    <path class="cls-1" d="M83.89,24.94c21.13-2.41,23.41,33.04,2.77,34.43-20.35,1.37-22.64-32.16-2.77-34.43Z"/>
    <g>
      <path class="cls-1" d="M43.22,90.49h4.09c.94,0,1.65.2,2.12.61s.71.98.71,1.7c0,.41-.06.75-.18,1.01-.12.27-.26.48-.42.65s-.32.28-.47.35c-.16.07-.27.12-.34.14v.02c.13.02.27.06.41.12.15.06.29.17.41.31.13.14.23.32.32.55.08.22.13.5.13.84,0,.5.04.96.11,1.37.08.41.19.71.35.88h-1.61c-.11-.18-.18-.39-.2-.61s-.03-.44-.03-.65c0-.39-.02-.73-.07-1.01s-.14-.52-.26-.71c-.13-.19-.3-.33-.52-.41-.22-.09-.5-.13-.85-.13h-2.21v3.53h-1.5v-8.57h0ZM44.72,94.39h2.46c.48,0,.84-.11,1.09-.34.25-.23.37-.57.37-1.03,0-.27-.04-.49-.12-.67s-.19-.31-.33-.4c-.14-.1-.3-.16-.48-.19s-.37-.05-.56-.05h-2.44v2.68h.01Z"/>
      <path class="cls-1" d="M51.67,90.49h6.17v1.3h-4.67v2.24h4.32v1.22h-4.32v2.51h4.75v1.3h-6.25s0-8.57,0-8.57Z"/>
      <path class="cls-1" d="M59.17,90.49h1.58l3.91,6.31h.02v-6.31h1.43v8.57h-1.58l-3.9-6.3h-.04v6.3h-1.43v-8.57h.01Z"/>
      <path class="cls-1" d="M67.89,90.49h6.17v1.3h-4.67v2.24h4.32v1.22h-4.32v2.51h4.75v1.3h-6.25v-8.57Z"/>
      <path class="cls-1" d="M74.61,90.49h1.52l1.55,6.55h.02l1.73-6.55h1.54l1.68,6.55h.02l1.6-6.55h1.52l-2.36,8.57h-1.52l-1.72-6.55h-.02l-1.75,6.55h-1.55s-2.26-8.57-2.26-8.57Z"/>
      <path class="cls-1" d="M88.77,90.49h1.6l3.3,8.57h-1.61l-.8-2.27h-3.42l-.8,2.27h-1.55l3.29-8.57h0ZM88.25,95.65h2.62l-1.28-3.68h-.04l-1.3,3.68Z"/>
      <path class="cls-1" d="M94.49,90.49h4.16c.77,0,1.38.18,1.85.53.46.35.7.88.7,1.6,0,.43-.11.8-.32,1.11s-.51.55-.91.71v.02c.53.11.93.36,1.2.75s.41.87.41,1.46c0,.34-.06.65-.18.94s-.31.54-.56.76c-.26.21-.58.38-.98.5s-.88.19-1.43.19h-3.94v-8.57h0ZM95.99,94.07h2.45c.36,0,.66-.1.9-.31.24-.2.36-.5.36-.88,0-.43-.11-.74-.32-.91-.22-.18-.53-.26-.94-.26h-2.45v2.36ZM95.99,97.83h2.65c.46,0,.81-.12,1.06-.35.25-.24.38-.57.38-1s-.13-.75-.38-.98-.61-.34-1.06-.34h-2.65v2.68h0Z"/>
      <path class="cls-1" d="M102.93,90.49h1.5v7.27h4.36v1.3h-5.86v-8.57Z"/>
      <path class="cls-1" d="M109.82,90.49h6.17v1.3h-4.67v2.24h4.32v1.22h-4.32v2.51h4.75v1.3h-6.25v-8.57Z"/>
      <path class="cls-1" d="M121.7,96.2c0,.33.06.61.17.84.11.23.27.42.47.57.2.15.43.26.69.32.26.07.54.1.85.1.33,0,.61-.04.84-.11.23-.08.42-.17.56-.29s.25-.26.31-.41c.06-.16.1-.31.1-.47,0-.33-.07-.57-.22-.73s-.31-.27-.49-.33c-.3-.11-.66-.22-1.06-.32-.4-.1-.9-.23-1.49-.39-.37-.1-.67-.22-.92-.38-.24-.16-.44-.33-.58-.52-.14-.19-.25-.4-.31-.61s-.09-.44-.09-.66c0-.43.09-.81.27-1.12.18-.32.42-.58.71-.79.3-.21.63-.36,1.01-.46.38-.1.76-.15,1.14-.15.45,0,.87.06,1.27.17.4.12.74.29,1.04.52.3.23.54.52.71.86.18.34.26.73.26,1.18h-1.5c-.04-.55-.23-.94-.56-1.17-.34-.23-.76-.34-1.28-.34-.18,0-.36.02-.54.05s-.35.1-.5.18-.28.2-.38.34-.15.32-.15.54c0,.3.09.54.28.71s.43.3.74.39c.03,0,.16.04.38.1.22.06.47.13.74.2s.54.14.8.21.45.12.56.15c.28.09.52.21.73.36.21.15.38.33.52.52.14.2.24.41.31.63.07.22.1.45.1.67,0,.48-.1.89-.29,1.23-.2.34-.45.62-.77.83-.32.22-.68.37-1.09.47-.41.1-.82.15-1.25.15-.49,0-.95-.06-1.38-.18s-.81-.3-1.13-.55-.58-.57-.77-.95c-.19-.39-.29-.85-.3-1.37h1.5-.01Z"/>
      <path class="cls-1" d="M132.14,90.28c.64,0,1.21.12,1.72.36s.94.56,1.29.97c.35.41.62.88.81,1.43s.28,1.12.28,1.73-.09,1.2-.28,1.74-.46,1.02-.81,1.43-.78.73-1.29.97-1.08.35-1.72.35-1.21-.12-1.72-.35c-.51-.24-.94-.56-1.29-.97s-.62-.88-.81-1.43-.28-1.12-.28-1.74.09-1.18.28-1.73.46-1.02.81-1.43c.35-.41.78-.73,1.29-.97s1.08-.36,1.72-.36ZM132.14,91.51c-.46,0-.85.09-1.18.28-.33.18-.6.43-.81.74-.21.31-.36.66-.46,1.05s-.15.79-.15,1.2.05.81.15,1.2.25.74.46,1.05c.21.31.48.55.81.74s.73.28,1.18.28.85-.09,1.18-.28c.33-.18.6-.43.81-.74.21-.31.36-.66.46-1.05s.15-.79.15-1.2-.05-.81-.15-1.2c-.1-.39-.25-.74-.46-1.05-.21-.31-.48-.55-.81-.74-.33-.18-.73-.28-1.18-.28Z"/>
      <path class="cls-1" d="M137.61,90.49h1.5v7.27h4.36v1.3h-5.86v-8.57Z"/>
      <path class="cls-1" d="M144.41,90.49h1.5v4.99c0,.29,0,.58.04.88s.11.56.24.8c.13.24.33.43.6.58s.65.23,1.13.23.87-.08,1.13-.23c.27-.15.47-.35.6-.58.13-.24.21-.5.24-.8s.04-.59.04-.88v-4.99h1.5v5.48c0,.55-.08,1.03-.25,1.44s-.41.75-.71,1.03c-.31.28-.68.48-1.11.62s-.91.2-1.44.2-1.01-.07-1.44-.2-.8-.34-1.11-.62c-.31-.28-.55-.62-.71-1.03-.17-.41-.25-.89-.25-1.44v-5.48Z"/>
      <path class="cls-1" d="M152.35,90.49h6.94v1.3h-2.72v7.27h-1.5v-7.27h-2.71v-1.3h0Z"/>
      <path class="cls-1" d="M160.28,90.49h1.5v8.57h-1.5v-8.57Z"/>
      <path class="cls-1" d="M167.27,90.28c.64,0,1.21.12,1.72.36s.94.56,1.29.97c.35.41.62.88.81,1.43s.28,1.12.28,1.73-.09,1.2-.28,1.74-.46,1.02-.81,1.43-.78.73-1.29.97-1.08.35-1.72.35-1.21-.12-1.72-.35c-.51-.24-.94-.56-1.29-.97s-.62-.88-.81-1.43-.28-1.12-.28-1.74.09-1.18.28-1.73.46-1.02.81-1.43c.35-.41.78-.73,1.29-.97s1.08-.36,1.72-.36ZM167.27,91.51c-.46,0-.85.09-1.18.28-.33.18-.6.43-.81.74-.21.31-.36.66-.46,1.05s-.15.79-.15,1.2.05.81.15,1.2.25.74.46,1.05c.21.31.48.55.81.74s.73.28,1.18.28.85-.09,1.18-.28c.33-.18.6-.43.81-.74.21-.31.36-.66.46-1.05s.15-.79.15-1.2-.05-.81-.15-1.2c-.1-.39-.25-.74-.46-1.05-.21-.31-.48-.55-.81-.74-.33-.18-.73-.28-1.18-.28Z"/>
      <path class="cls-1" d="M172.68,90.49h1.58l3.91,6.31h.02v-6.31h1.43v8.57h-1.58l-3.9-6.3h-.04v6.3h-1.43v-8.57h0Z"/>
      <path class="cls-1" d="M182.39,96.2c0,.33.06.61.17.84.11.23.27.42.47.57s.43.26.69.32c.26.07.54.1.85.1.33,0,.61-.04.84-.11.23-.08.42-.17.56-.29s.25-.26.31-.41c.06-.16.1-.31.1-.47,0-.33-.07-.57-.22-.73s-.31-.27-.49-.33c-.3-.11-.66-.22-1.06-.32s-.9-.23-1.49-.39c-.37-.1-.67-.22-.92-.38-.24-.16-.44-.33-.58-.52-.14-.19-.25-.4-.31-.61s-.09-.44-.09-.66c0-.43.09-.81.27-1.12.18-.32.42-.58.71-.79.3-.21.63-.36,1.01-.46.38-.1.76-.15,1.14-.15.45,0,.87.06,1.27.17.4.12.74.29,1.04.52.3.23.54.52.71.86.18.34.26.73.26,1.18h-1.5c-.04-.55-.23-.94-.56-1.17-.34-.23-.76-.34-1.28-.34-.18,0-.36.02-.54.05s-.35.1-.5.18-.28.2-.38.34-.15.32-.15.54c0,.3.09.54.28.71s.43.3.74.39c.03,0,.16.04.38.1s.47.13.74.2.54.14.8.21c.26.07.45.12.56.15.28.09.52.21.73.36.21.15.38.33.52.52.14.2.24.41.31.63.07.22.1.45.1.67,0,.48-.1.89-.29,1.23-.2.34-.45.62-.77.83-.32.22-.68.37-1.09.47s-.82.15-1.25.15c-.49,0-.95-.06-1.38-.18-.43-.12-.81-.3-1.13-.55s-.58-.57-.77-.95c-.19-.39-.29-.85-.3-1.37h1.5-.01Z"/>
    </g>
  </g>
</svg>