<?xml version="1.0" encoding="utf-8"?>
<!-- Generator: Adobe Illustrator 25.2.0, SVG Export Plug-In . SVG Version: 6.00 Build 0)  -->
<svg version="1.1" id="Layer_1" xmlns="http://www.w3.org/2000/svg" xmlns:xlink="http://www.w3.org/1999/xlink" x="0px" y="0px"
	 viewBox="0 0 512 512" style="enable-background:new 0 0 512 512;" xml:space="preserve">
<style type="text/css">
	.st0{fill:#041E2B;}
	.st1{fill:#042842;}
	.st2{fill:#BCAB97;}
</style>
<g>
	<g>
		<polygon class="st0" points="14.6,279.8 -8.3,309 -49.3,254.7 -81.8,247.7 -127.8,194.4 -154.8,163.1 10.9,277.2 		"/>
		<path class="st1" d="M14.8,279.6l-0.2,0.2l-33,42l-22,28c0.2-0.2,2.8-4.2,5.9-9.7c3-5.2,6.5-11.8,8.7-17.8
			c1.8-4.9,2.9-9.3,2.1-12.2c-2.7-10.1-9.6-3.2-9.6-3.2l-128.6-132.9l34.1,20.3l138.7,82.8L14.8,279.6L14.8,279.6z"/>
		<polygon points="58.2,232.1 58.2,252.9 80.9,252.9 80.9,259.6 58.2,259.6 58.2,280.9 83.5,280.9 83.5,287.6 50.1,287.6 
			50.1,225.4 83.5,225.4 83.5,232.1 		"/>
		<path d="M132.5,273.8h-27.1l-5,13.8h-8.5l22.5-61.7h9.3l22.4,61.7h-8.5L132.5,273.8L132.5,273.8z M130.2,267.2L119,235.9
			l-11.2,31.3H130.2L130.2,267.2z"/>
		<path d="M202.9,243.5c-1.7-3.6-4.2-6.4-7.5-8.4c-3.3-2-7.1-3-11.4-3s-8.2,1-11.7,3c-3.5,2-6.2,4.8-8.2,8.5c-2,3.7-3,8-3,12.9
			s1,9.2,3,12.8s4.7,6.5,8.2,8.5c3.5,2,7.4,3,11.7,3c6.1,0,11-1.8,15-5.4c3.9-3.6,6.2-8.5,6.9-14.7h-24.8v-6.6h33.4v6.2
			c-0.5,5.1-2.1,9.8-4.8,14c-2.7,4.2-6.3,7.6-10.8,10.1c-4.5,2.5-9.4,3.7-14.9,3.7c-5.8,0-11-1.3-15.8-4c-4.8-2.7-8.5-6.5-11.3-11.3
			s-4.1-10.2-4.1-16.3s1.4-11.5,4.1-16.3s6.5-8.6,11.3-11.3s10-4,15.8-4c6.6,0,12.4,1.6,17.5,4.9c5.1,3.3,8.8,7.9,11.1,13.8
			L202.9,243.5L202.9,243.5z"/>
		<polygon points="233.3,281 255,281 255,287.6 225.1,287.6 225.1,225.5 233.3,225.5 		"/>
		<polygon points="271.7,232.1 271.7,252.9 294.4,252.9 294.4,259.6 271.7,259.6 271.7,280.9 297,280.9 297,287.6 263.6,287.6 
			263.6,225.4 297,225.4 297,232.1 		"/>
		<path d="M334.2,240.2c2.7-4.8,6.5-8.6,11.2-11.4c4.7-2.7,10-4.1,15.7-4.1c6.8,0,12.7,1.6,17.7,4.9c5,3.3,8.7,7.9,11,13.9h-9.7
			c-1.7-3.7-4.2-6.6-7.4-8.6s-7.1-3-11.6-3s-8.2,1-11.7,3c-3.4,2-6.2,4.9-8.1,8.6c-2,3.7-2.9,8.1-2.9,13s1,9.2,2.9,13
			s4.7,6.6,8.1,8.6c3.4,2,7.3,3,11.7,3s8.4-1,11.6-3s5.7-4.8,7.4-8.6h9.7c-2.3,5.9-6,10.5-11,13.8c-5,3.2-11,4.9-17.7,4.9
			c-5.8,0-11-1.3-15.7-4s-8.5-6.5-11.2-11.3s-4.1-10.2-4.1-16.3S331.4,245,334.2,240.2"/>
		<path d="M438.6,273.8h-27.1l-5,13.8h-8.5l22.5-61.7h9.3l22.4,61.7h-8.5L438.6,273.8L438.6,273.8z M436.2,267.2L425,235.9
			l-11.2,31.3H436.2L436.2,267.2z"/>
		<path d="M498.1,256.6c-3.5,3.4-8.9,5.1-16.2,5.1H470v25.9h-8.1v-62.1h20c7,0,12.3,1.7,16,5.1c3.7,3.4,5.5,7.8,5.5,13.1
			S501.6,253.2,498.1,256.6 M491.9,252.1c2.1-2,3.2-4.8,3.2-8.4c0-7.7-4.4-11.5-13.2-11.5H470V255h11.9
			C486.4,255,489.8,254,491.9,252.1"/>
		<rect x="513.5" y="225.5" width="8.1" height="62.1"/>
		<polygon points="573.6,225.5 573.6,232.1 556.7,232.1 556.7,287.6 548.5,287.6 548.5,232.1 531.5,232.1 531.5,225.5 		"/>
		<path d="M620.2,273.8h-27.1l-5,13.8h-8.6l22.4-61.7h9.3l22.4,61.7h-8.6L620.2,273.8L620.2,273.8z M617.9,267.2l-11.2-31.3
			l-11.2,31.3H617.9L617.9,267.2z"/>
		<polygon points="651.7,281 673.4,281 673.4,287.6 643.6,287.6 643.6,225.5 651.7,225.5 		"/>
	</g>
	<g>
		<path class="st2" d="M184.7,317.2v1.9H177v6h6.2v1.9H177v8h-2.3v-17.7L184.7,317.2L184.7,317.2z"/>
		<path class="st2" d="M189.8,317.2v17.7h-2.3v-17.7H189.8z"/>
		<path class="st2" d="M207.7,334.9h-2.3l-9.3-14.1v14.1h-2.3v-17.8h2.3l9.3,14.1v-14.1h2.3V334.9z"/>
		<path class="st2" d="M222.1,331h-7.7l-1.4,3.9h-2.4l6.4-17.6h2.7l6.4,17.6h-2.4L222.1,331L222.1,331z M221.4,329.1l-3.2-9l-3.2,9
			H221.4L221.4,329.1z"/>
		<path class="st2" d="M242.7,334.9h-2.3l-9.3-14.1v14.1h-2.3v-17.8h2.3l9.3,14.1v-14.1h2.3V334.9z"/>
		<path class="st2" d="M246.9,321.4c0.8-1.4,1.8-2.5,3.2-3.2c1.3-0.8,2.8-1.2,4.5-1.2c1.9,0,3.6,0.5,5.1,1.4c1.4,0.9,2.5,2.2,3.2,4
			H260c-0.5-1.1-1.2-1.9-2.1-2.5c-0.9-0.6-2-0.9-3.3-0.9s-2.3,0.3-3.3,0.9s-1.8,1.4-2.3,2.5s-0.8,2.3-0.8,3.7s0.3,2.6,0.8,3.7
			s1.3,1.9,2.3,2.5s2.1,0.9,3.3,0.9s2.4-0.3,3.3-0.8c0.9-0.6,1.6-1.4,2.1-2.5h2.8c-0.7,1.7-1.7,3-3.2,3.9c-1.4,0.9-3.1,1.4-5.1,1.4
			c-1.6,0-3.1-0.4-4.5-1.2s-2.4-1.8-3.2-3.2s-1.2-2.9-1.2-4.7S246.1,322.8,246.9,321.4L246.9,321.4z"/>
		<path class="st2" d="M268.6,319.1v5.9h6.5v1.9h-6.5v6.1h7.2v1.9h-9.5v-17.8h9.5v1.9L268.6,319.1L268.6,319.1z"/>
		<path class="st2" d="M289,337.6h-2.3v-22.9h2.3V337.6z"/>
		<path class="st2" d="M311.2,317.2v1.9h-4.8v15.8H304v-15.8h-4.9v-1.9H311.2z"/>
		<path class="st2" d="M316.3,319.1v5.9h6.5v1.9h-6.5v6.1h7.2v1.9H314v-17.8h9.5v1.9L316.3,319.1L316.3,319.1z"/>
		<path class="st2" d="M327.4,321.4c0.8-1.4,1.8-2.5,3.2-3.2c1.3-0.8,2.8-1.2,4.5-1.2c1.9,0,3.6,0.5,5.1,1.4c1.4,0.9,2.5,2.2,3.2,4
			h-2.8c-0.5-1.1-1.2-1.9-2.1-2.5c-0.9-0.6-2-0.9-3.3-0.9s-2.3,0.3-3.3,0.9s-1.8,1.4-2.3,2.5s-0.8,2.3-0.8,3.7s0.3,2.6,0.8,3.7
			s1.3,1.9,2.3,2.5s2.1,0.9,3.3,0.9s2.4-0.3,3.3-0.8c0.9-0.6,1.6-1.4,2.1-2.5h2.8c-0.7,1.7-1.7,3-3.2,3.9c-1.4,0.9-3.1,1.4-5.1,1.4
			c-1.6,0-3.1-0.4-4.5-1.2s-2.4-1.8-3.2-3.2s-1.2-2.9-1.2-4.7S326.6,322.8,327.4,321.4L327.4,321.4z"/>
		<path class="st2" d="M360.4,317.2v17.7H358v-8h-9v8h-2.3v-17.7h2.3v7.8h9v-7.8H360.4z"/>
		<path class="st2" d="M374,337.6h-2.3v-22.9h2.3V337.6z"/>
		<path class="st2" d="M394.6,334.9l-4.2-7.2h-2.8v7.2h-2.3v-17.7h5.7c1.3,0,2.5,0.2,3.4,0.7c0.9,0.5,1.6,1.1,2.1,1.9
			c0.5,0.8,0.7,1.7,0.7,2.7c0,1.2-0.3,2.3-1,3.2s-1.8,1.5-3.2,1.9l4.5,7.4L394.6,334.9L394.6,334.9z M387.6,325.8h3.4
			c1.2,0,2.2-0.3,2.8-0.9s0.9-1.5,0.9-2.5s-0.3-1.9-0.9-2.4s-1.6-0.9-2.8-0.9h-3.4V325.8L387.6,325.8z"/>
		<path class="st2" d="M403,319.1v5.9h6.5v1.9H403v6.1h7.2v1.9h-9.5v-17.8h9.5v1.9L403,319.1L403,319.1z"/>
		<path class="st2" d="M424.2,331h-7.7l-1.4,3.9h-2.4l6.4-17.6h2.7l6.4,17.6h-2.4L424.2,331L424.2,331z M423.6,329.1l-3.2-9l-3.2,9
			H423.6L423.6,329.1z"/>
		<path class="st2" d="M433.2,333h6.2v1.9h-8.5v-17.7h2.3L433.2,333L433.2,333z"/>
		<path class="st2" d="M451,319.1v5.9h6.5v1.9H451v6.1h7.2v1.9h-9.5v-17.8h9.5v1.9L451,319.1L451,319.1z"/>
		<path class="st2" d="M464.2,334.5c-0.9-0.4-1.7-1-2.2-1.7s-0.8-1.6-0.8-2.6h2.5c0.1,0.8,0.4,1.5,1,2.1c0.6,0.6,1.5,0.8,2.6,0.8
			s2-0.3,2.6-0.8c0.6-0.5,1-1.3,1-2.1c0-0.7-0.2-1.2-0.6-1.7c-0.4-0.4-0.8-0.8-1.4-1s-1.3-0.5-2.3-0.7c-1.2-0.3-2.1-0.6-2.8-0.9
			c-0.7-0.3-1.3-0.8-1.8-1.4c-0.5-0.7-0.8-1.5-0.8-2.6c0-1,0.2-1.8,0.7-2.6s1.2-1.3,2.1-1.7s1.9-0.6,3.1-0.6c1.7,0,3,0.4,4.1,1.2
			s1.7,1.9,1.8,3.3h-2.5c-0.1-0.7-0.4-1.3-1.1-1.8c-0.6-0.5-1.5-0.8-2.5-0.8c-1,0-1.8,0.2-2.4,0.8s-0.9,1.2-0.9,2.1
			c0,0.6,0.2,1.2,0.5,1.6c0.4,0.4,0.8,0.7,1.3,0.9s1.3,0.5,2.2,0.7c1.2,0.3,2.1,0.6,2.8,1s1.3,0.8,1.8,1.5s0.8,1.5,0.8,2.7
			c0,0.9-0.2,1.7-0.7,2.4s-1.1,1.4-2,1.9c-0.9,0.5-2,0.7-3.2,0.7S465.1,334.9,464.2,334.5L464.2,334.5z"/>
		<path class="st2" d="M487.6,317.2v1.9h-4.8v15.8h-2.3v-15.8h-4.9v-1.9H487.6z"/>
		<path class="st2" d="M500.9,331h-7.7l-1.4,3.9h-2.4l6.4-17.6h2.7l6.4,17.6h-2.4L500.9,331L500.9,331z M500.2,329.1l-3.2-9l-3.2,9
			H500.2L500.2,329.1z"/>
		<path class="st2" d="M518.4,317.2v1.9h-4.8v15.8h-2.3v-15.8h-4.9v-1.9H518.4z"/>
		<path class="st2" d="M523.6,319.1v5.9h6.5v1.9h-6.5v6.1h7.2v1.9h-9.5v-17.8h9.5v1.9L523.6,319.1L523.6,319.1z"/>
	</g>
</g>
</svg>
